<svg width="73" height="123" viewBox="0 0 73 123" fill="none" xmlns="http://www.w3.org/2000/svg">
<path d="M8.22824 122.95C12.6666 122.95 16.2646 122.319 16.2646 121.541C16.2646 120.763 12.6666 120.132 8.22824 120.132C3.78987 120.132 0.191864 120.763 0.191864 121.541C0.191864 122.319 3.78987 122.95 8.22824 122.95Z" fill="#62674A"/>
<path d="M11.5519 119.237C11.9188 118.928 12.1859 118.509 12.3174 118.038C12.4173 117.564 12.2215 116.992 11.7818 116.818C11.2901 116.623 10.7645 116.977 10.3667 117.334C9.96903 117.69 9.51135 118.098 8.99171 118.021C9.25949 117.769 9.45984 117.45 9.5733 117.094C9.68676 116.738 9.70948 116.357 9.63926 115.989C9.61651 115.837 9.55435 115.694 9.45938 115.575C9.18557 115.272 8.69192 115.401 8.36415 115.639C7.32487 116.397 7.03508 117.862 7.02908 119.177C6.92515 118.703 7.01309 118.208 7.01109 117.727C7.00909 117.247 6.87919 116.691 6.48146 116.437C6.23619 116.3 5.9604 116.233 5.68202 116.242C5.21635 116.223 4.69471 116.273 4.37694 116.627C3.97722 117.066 4.08314 117.804 4.4269 118.285C4.77066 118.765 5.29629 119.074 5.77995 119.407C6.16686 119.646 6.49681 119.973 6.74528 120.362C6.77522 120.417 6.79935 120.474 6.81723 120.534H9.74718C10.4025 120.188 11.0095 119.752 11.5519 119.237Z" fill="#62674A"/>
<path d="M66.1206 113.853C66.1216 113.835 66.1216 113.816 66.1206 113.798C66.1332 113.533 66.0845 113.27 65.9787 113.029C65.655 112.349 64.8755 112.238 64.214 112.12C63.1245 111.926 62.0806 111.519 61.1381 110.92C60.5126 110.524 59.871 109.942 59.7931 109.124C59.7931 108.956 59.8051 108.788 59.7931 108.635C59.7931 108.523 59.7931 108.414 59.7931 108.308C59.7931 107.871 59.7691 107.469 59.4553 107.39C57.5806 106.91 55.9597 105.254 55.3142 103.156C55.1763 102.708 55.0804 102.242 54.9025 101.813C54.3369 100.455 53.0778 99.7171 52.1264 98.6896C50.8753 97.3368 50.1498 95.4559 49.6242 93.5687C49.0985 91.6815 48.7348 89.728 48.0453 87.9112C46.8961 84.8805 45.8588 81.653 43.9102 79.2314C43.6164 78.8647 43.2926 78.4897 42.9508 78.1106C41.2181 75.488 40.0409 72.3869 38.5399 69.5572C38.2535 68.9772 37.9041 68.433 37.4987 67.9351C36.979 67.3385 36.3355 66.9118 35.7359 66.4249C32.8479 64.0882 31.0012 60.4174 28.5129 57.5317C28.0792 57.0283 27.4037 56.3199 27.0839 55.7129C27.0821 55.3587 27.1115 55.005 27.1719 54.6564C27.3318 53.7967 27.7615 52.9805 27.6875 52.1042C27.6616 51.9335 27.6475 51.7612 27.6455 51.5884C27.666 51.3892 27.7173 51.1948 27.7974 51.0125C27.9262 50.6174 28.0964 50.2381 28.3051 49.8814C28.6672 49.3046 28.9057 48.654 29.0046 47.9735C29.5022 47.4846 29.7181 46.5897 30.3397 46.3639C30.6854 46.2396 31.1391 46.3246 31.339 45.9703C31.3967 45.8489 31.4287 45.7161 31.4329 45.5809C31.4958 44.8812 31.4383 44.1756 31.263 43.4969C31.3133 43.1382 31.3267 42.775 31.303 42.4134C31.2348 41.512 30.9864 40.635 30.5735 39.8385C30.3197 39.3372 29.9739 38.8358 29.4803 38.7198C29.3723 38.695 29.2624 38.6888 29.1585 38.6556C28.5229 38.463 28.3031 37.4458 27.7295 37.1309C28.467 37.5453 29.2204 38.0134 29.914 37.6654C30.7853 37.2242 30.8573 35.8486 30.7913 34.7507L30.5595 30.6842C30.4356 28.6127 30.2797 26.4147 29.2504 24.7078C28.3231 23.1665 26.8041 22.2405 25.2532 21.6626C24.206 21.271 23.0548 21.0204 22.0175 21.4202C22.0794 21.3746 22.1394 21.329 22.1994 21.2876C22.0717 21.327 21.9469 21.3755 21.8256 21.4326C21.2816 21.7192 20.7763 22.0786 20.3227 22.5015C20.5742 21.842 20.703 21.1391 20.7024 20.43C20.7082 19.3689 20.4181 18.3287 19.867 17.4345L21.0382 16.4132L20.7644 15.9513L21.28 15.4417C21.2476 15.3872 21.2023 15.3423 21.1485 15.3111C21.0946 15.2799 21.0339 15.2635 20.9722 15.2635C20.9483 15.2614 20.9242 15.2614 20.9003 15.2635C20.9187 15.1113 20.9065 14.9568 20.8643 14.8098L20.8283 14.845C20.7972 14.7184 20.7488 14.597 20.6844 14.4846H20.7264C20.7017 14.438 20.6743 14.3931 20.6444 14.3499C20.6444 14.3707 20.6444 14.3934 20.6444 14.4142C20.4758 14.1568 20.2695 13.9282 20.0329 13.7368C19.1375 12.9744 18.1122 12.3426 17.003 12.2577C16.4634 12.2162 15.9217 12.3053 15.3821 12.2577C14.6546 12.2059 13.9491 11.92 13.2196 11.8889C12.4901 11.8578 11.6687 12.1665 11.3669 12.9247C11.237 13.2561 11.219 13.629 11.1211 13.9708C10.9033 14.7332 10.3217 15.2614 9.82801 15.8249C9.33435 16.3884 8.87668 17.1445 9.01258 17.9317C9.06672 18.1821 9.15134 18.4243 9.2644 18.6526L11.7966 24.3204C11.807 24.7351 11.795 25.15 11.7607 25.5633C11.7447 25.7415 11.7227 25.9217 11.6947 26.104C11.6827 26.1806 11.6687 26.2594 11.6507 26.3381C11.3518 26.3903 11.0809 26.552 10.8873 26.7938C10.8149 26.8882 10.7692 27.0015 10.7554 27.1211C10.7698 27.311 10.802 27.499 10.8513 27.6825C10.8553 27.927 10.7996 28.1686 10.6894 28.3848C10.4356 28.9959 10.1658 29.6174 9.73408 30.0752C9.5582 30.2637 9.35834 30.4211 9.18046 30.6076C8.97757 30.8314 8.79243 31.0718 8.62685 31.3264C8.25711 31.865 7.87537 32.4285 7.73947 33.0997C7.51563 34.1976 7.06394 35.2417 6.74017 36.3127C6.69405 36.399 6.63691 36.4784 6.57029 36.5488C6.37043 36.7436 6.11461 36.8264 5.91874 37.017C5.47905 37.4479 5.51902 38.2351 5.62695 38.8918C6.01468 41.3321 6.6942 43.7082 6.96401 46.1692C7.07194 47.1345 7.11591 48.1165 7.32376 49.059C7.40043 49.4662 7.5459 49.8561 7.75346 50.2108C7.72348 51.1368 7.81542 52.0752 7.49764 52.9287C7.34974 53.314 7.14389 53.6662 6.96401 54.0349C6.71502 54.5662 6.49418 55.1111 6.30248 55.6673L5.21723 58.6296C5.01737 59.191 4.80552 59.7566 4.64963 60.3408C4.19995 62.0415 4.19795 63.8624 4.2619 65.6336C4.27007 65.6884 4.2587 65.7443 4.22992 65.791C4.19795 65.8325 4.122 65.82 4.12 65.7641C4.10601 65.8677 4.05005 66.0438 4.03806 66.1453C4.52172 66.3897 5.06534 66.311 5.60496 66.2509C5.60496 66.3048 5.60496 66.3607 5.60496 66.4146C5.60402 66.4277 5.60402 66.4408 5.60496 66.4539C5.60983 66.6228 5.62653 66.791 5.65493 66.9573C5.65493 66.9573 5.65493 66.9573 5.65493 66.9698C5.66892 67.0547 5.68691 67.1376 5.70489 67.2204C5.70489 67.2432 5.70489 67.2639 5.72088 67.2867C5.73887 67.3613 5.75886 67.4379 5.78084 67.5104C5.79283 67.5498 5.80282 67.585 5.81482 67.6223C5.82681 67.6596 5.8448 67.7135 5.86079 67.757C5.87677 67.8005 5.87877 67.8129 5.88877 67.8398C6.02067 68.1961 6.17856 68.54 6.32846 68.888C6.5859 69.4263 6.75799 70.0041 6.8381 70.5991C6.85009 70.7359 6.85409 70.8726 6.86009 71.0135V71.1564C6.86405 71.3041 6.87606 71.4514 6.89606 71.5976C6.93204 71.8338 6.99999 72.0596 7.05395 72.2916C7.08593 72.4283 7.10991 72.5692 7.13389 72.7059C7.15788 72.8427 7.17986 73.0229 7.19985 73.1803C7.35041 74.3514 7.46166 75.5253 7.53361 76.702C7.5516 76.9858 7.56759 77.2717 7.58158 77.5555C7.67552 79.627 7.65153 81.6986 7.62755 83.7826C7.61428 84.4624 7.54743 85.14 7.42769 85.8086C7.09392 87.7704 6.4044 89.6762 5.94872 91.6235C5.90076 91.8306 5.85679 92.0378 5.81482 92.2449C5.71341 92.684 5.64657 93.1308 5.61496 93.5811C5.61193 94.1815 5.66412 94.7808 5.77085 95.3709C5.86944 96.0877 5.94539 96.8079 5.99869 97.5316C5.6302 98.2057 5.39002 98.947 5.29118 99.715C5.04935 102.021 3.16467 103.75 2.90885 106.056C2.89184 106.202 2.88583 106.35 2.89086 106.497C2.88487 106.592 2.88487 106.688 2.89086 106.783C2.86418 107.028 2.88455 107.276 2.95082 107.512C3.04556 107.76 3.20445 107.976 3.41002 108.137C3.6156 108.297 3.85988 108.396 4.116 108.422C4.60566 108.486 5.09532 108.358 5.58298 108.273C5.80283 108.233 6.02267 108.208 6.24252 108.186C6.24851 108.264 6.24851 108.343 6.24252 108.422C6.13905 108.614 6.05082 108.815 5.9787 109.023C5.85546 109.265 5.77876 109.531 5.75286 109.804C5.74425 110.126 5.82245 110.444 5.9787 110.723C6.47036 111.653 7.45167 112.091 8.39102 112.173C9.33036 112.256 10.2637 112.043 11.203 111.991H11.3629C11.3953 112.083 11.4347 112.171 11.4809 112.256C11.9705 113.186 12.9538 113.623 13.8912 113.706C14.8285 113.789 15.7659 113.578 16.7052 113.526C16.985 113.512 17.2668 113.512 17.5466 113.491C18.1209 113.446 18.6889 113.338 19.2414 113.17C19.6391 113.756 20.0953 114.297 20.6025 114.784C22.2493 116.234 24.5257 116.151 26.5843 115.867C28.6429 115.583 30.9632 115.057 32.8399 116.074C34.2789 115.91 35.1363 118.278 36.5813 118.338C37.2448 118.365 37.8404 117.883 38.3201 117.352C38.4849 117.13 38.6969 116.95 38.9397 116.826C39.1404 116.764 39.3531 116.757 39.5572 116.805C40.6769 117.015 41.6828 117.645 42.3832 118.575C42.747 119.047 43.1187 119.641 43.6643 119.654C44.154 119.654 44.5877 119.175 45.0734 119.24C45.4031 119.285 45.6729 119.577 45.9587 119.757C46.8541 120.306 47.9573 119.799 48.8167 119.194C49.6761 118.589 50.5955 117.858 51.6028 117.968C52.2563 118.038 52.8379 118.461 53.4475 118.736C55.3262 119.585 57.6306 118.943 58.9776 117.211C59.1915 116.934 59.4113 116.613 59.7271 116.54C59.9381 116.513 60.1523 116.546 60.3467 116.636C61.4759 117.025 62.6631 117.383 63.8182 117.118C64.9734 116.853 66.0727 115.77 66.0967 114.407C66.0983 114.324 66.095 114.241 66.0867 114.158C66.0867 114.106 66.0967 114.052 66.0967 113.998C66.1076 113.951 66.1156 113.902 66.1206 113.853ZM20.7524 36.0206C20.6721 36.2386 20.5335 36.4284 20.3526 36.5675C20.3367 36.4784 20.3207 36.3893 20.3027 36.2982C20.2307 35.9129 20.1488 35.5296 20.0609 35.1485C20.3275 35.3258 20.6124 35.4717 20.9103 35.5835C20.8523 35.7285 20.8043 35.8839 20.7464 36.0206H20.7524ZM17.8224 26.6695C17.8224 26.684 17.8224 26.6985 17.8224 26.713C17.8224 27.4422 18.0662 27.8586 18.422 28.0968C18.0252 28.8949 17.8195 29.7802 17.8224 30.678C17.6865 30.5682 17.5406 30.4709 17.4227 30.3486C17.2038 30.1152 17.0259 29.8438 16.8971 29.5469C16.9544 29.5571 17.0133 29.5476 17.0649 29.52C17.1669 29.4475 17.1629 29.2776 17.1489 29.1409C17.0137 27.8402 17.1831 26.5249 17.6425 25.3064C17.8761 25.2211 18.1016 25.1137 18.3161 24.9854C18.0189 25.4853 17.8504 26.0559 17.8264 26.6426C17.8264 26.6426 17.8164 26.6592 17.8164 26.6695H17.8224ZM27.6036 37.0667C27.5 37.4684 27.443 37.8815 27.4337 38.2972C27.0716 37.7216 26.5373 37.285 25.9128 37.0543C25.8392 37.0315 25.7644 37.0128 25.6889 36.9984C25.7356 36.9503 25.7857 36.906 25.8388 36.8658C26.4124 36.4515 27.058 36.7415 27.7175 37.104C27.6783 37.0889 27.6383 37.0764 27.5976 37.0667H27.6036Z" fill="url(#paint0_linear)"/>
<path d="M3.85823 112.24C3.85014 112.572 3.94009 112.898 4.11605 113.176C4.67366 114.123 5.79288 114.566 6.85813 114.649C7.92339 114.732 8.99064 114.516 10.0559 114.465C10.3757 114.45 10.6954 114.448 11.0132 114.429C12.6681 114.326 14.249 113.719 15.8099 113.118C16.0657 113.021 16.3635 112.863 16.3775 112.584C16.371 112.487 16.344 112.393 16.2984 112.308C16.2528 112.224 16.1897 112.151 16.1137 112.095C15.9096 111.91 15.6798 111.757 15.4321 111.643C14.5647 111.247 13.5255 111.351 12.702 110.864C12.5202 110.756 12.3543 110.624 12.1644 110.535C11.9424 110.442 11.7077 110.386 11.4689 110.369C10.4382 110.248 9.39586 110.283 8.37507 110.475C7.59761 110.622 6.83215 110.86 6.0427 110.918C5.74369 110.945 5.4425 110.924 5.14933 110.858C4.94947 110.81 4.69564 110.624 4.50578 110.748C4.31591 110.872 4.20998 111.268 4.12005 111.444C3.98003 111.687 3.89084 111.958 3.85823 112.24Z" fill="#3F3D56"/>
<path opacity="0.05" d="M3.85823 112.24C3.85014 112.572 3.94009 112.898 4.11605 113.176C4.67366 114.123 5.79288 114.566 6.85813 114.649C7.92339 114.732 8.99064 114.516 10.0559 114.465C10.3757 114.45 10.6954 114.448 11.0132 114.429C12.6681 114.326 14.249 113.719 15.8099 113.118C16.0657 113.021 16.3635 112.863 16.3775 112.584C16.371 112.487 16.344 112.393 16.2984 112.308C16.2528 112.224 16.1897 112.151 16.1137 112.095C15.9096 111.91 15.6798 111.757 15.4321 111.643C14.5647 111.247 13.5255 111.351 12.702 110.864C12.5202 110.756 12.3543 110.624 12.1644 110.535C11.9424 110.442 11.7077 110.386 11.4689 110.369C10.4382 110.248 9.39586 110.283 8.37507 110.475C7.59761 110.622 6.83215 110.86 6.0427 110.918C5.74369 110.945 5.4425 110.924 5.14933 110.858C4.94947 110.81 4.69564 110.624 4.50578 110.748C4.31591 110.872 4.20998 111.268 4.12005 111.444C3.98003 111.687 3.89084 111.958 3.85823 112.24Z" fill="black"/>
<path d="M10.1178 113.793C10.1088 114.125 10.1989 114.452 10.3757 114.73C10.9333 115.676 12.0505 116.12 13.1177 116.203C14.185 116.285 15.2502 116.07 16.3155 116.018C16.6353 116.004 16.953 116.002 17.2728 115.983C18.9277 115.879 20.5086 115.272 22.0695 114.672C22.3253 114.572 22.6231 114.417 22.6371 114.135C22.6306 114.039 22.6036 113.945 22.5579 113.861C22.5123 113.777 22.4492 113.704 22.3733 113.648C22.1697 113.463 21.9398 113.31 21.6917 113.197C20.8243 112.801 19.7851 112.903 18.9616 112.416C18.7798 112.31 18.6139 112.175 18.424 112.088C18.2018 111.996 17.9672 111.94 17.7285 111.921C16.6977 111.8 15.6554 111.836 14.6347 112.028C13.8572 112.175 13.0918 112.414 12.3023 112.47C12.0034 112.498 11.7021 112.479 11.4089 112.412C11.2091 112.364 10.9552 112.178 10.7654 112.302C10.5755 112.426 10.4676 112.822 10.3796 112.998C10.2388 113.241 10.1495 113.512 10.1178 113.793Z" fill="#3F3D56"/>
<path d="M6.84811 36.2464C6.77547 36.0376 6.64296 35.8569 6.46838 35.7285C6.05067 35.4882 5.55701 35.9356 5.37514 36.3851C5.19327 36.8347 5.13331 37.3857 4.77556 37.7109C4.55771 37.9181 4.25792 37.9927 4.03408 38.1874C3.53443 38.6245 3.58439 39.4303 3.70231 40.0932C4.144 42.5791 4.91746 44.9946 5.22524 47.4991C5.34716 48.4831 5.39712 49.4816 5.62497 50.4407C5.76487 51.0083 5.98671 51.5842 6.42441 51.9529C6.8621 52.3217 7.56161 52.4107 7.97332 52.0089C7.22877 49.9171 6.85699 47.7026 6.87609 45.4731C6.88808 44.023 7.07595 42.5729 7.11392 41.1062C7.15589 39.826 7.09394 38.5437 7.03198 37.2635C7.03769 36.9346 6.97782 36.6081 6.8561 36.3044C6.7916 36.1543 6.68553 36.0276 6.55138 35.9401C6.41722 35.8527 6.26103 35.8086 6.10263 35.8134" fill="#E9C6AF"/>
<path d="M15.8219 26.4955C18.6001 26.4955 20.8523 24.1611 20.8523 21.2814C20.8523 18.4017 18.6001 16.0673 15.8219 16.0673C13.0436 16.0673 10.7914 18.4017 10.7914 21.2814C10.7914 24.1611 13.0436 26.4955 15.8219 26.4955Z" fill="#CB8C8E"/>
<path d="M22.6011 36.9569C25.3882 36.9569 27.6476 34.615 27.6476 31.7262C27.6476 28.8374 25.3882 26.4955 22.6011 26.4955C19.814 26.4955 17.5546 28.8374 17.5546 31.7262C17.5546 34.615 19.814 36.9569 22.6011 36.9569Z" fill="#E9C6AF"/>
<path d="M24.6776 36.7912C24.7216 37.2055 24.8775 37.6882 25.2592 37.7938C25.4363 37.8157 25.6145 37.8261 25.7928 37.8249C25.9349 37.8522 26.0686 37.9141 26.183 38.0056C26.2973 38.0971 26.389 38.2155 26.4504 38.3511C26.5709 38.6252 26.6186 38.9277 26.5883 39.2273C26.5554 39.6828 26.4139 40.1227 26.1766 40.5076C25.7267 41.1752 25.0758 41.6693 24.3259 41.9121C23.5815 42.15 22.8128 42.2967 22.0355 42.3492C21.6908 42.4068 21.3387 42.3955 20.9982 42.316C20.7839 42.2436 20.5817 42.1374 20.3986 42.0012C19.8296 41.6057 19.3313 41.1108 18.9256 40.5386C18.6275 40.1404 18.4119 39.6827 18.2921 39.1942C18.1773 38.7037 18.2436 38.1865 18.478 37.7441C18.55 37.5975 18.6686 37.4812 18.8137 37.4147C19.2414 37.2552 19.6291 37.8042 20.0828 37.8166C20.4426 37.8166 20.7264 37.4976 20.8823 37.162C21.0382 36.8264 21.1201 36.4473 21.3519 36.1635C21.6218 35.83 22.0455 35.6829 22.4512 35.571C23.1187 35.3887 23.9941 35.1132 24.6896 35.1899C25.0713 35.2292 24.8215 35.4654 24.7336 35.7513C24.6452 36.0901 24.6262 36.4443 24.6776 36.7912Z" fill="#E9C6AF"/>
<path d="M19.9209 42.2498C20.5345 41.9639 20.8743 41.274 21.4219 40.866C21.8816 40.5241 22.4552 40.4019 22.9808 40.1844C23.5142 39.9638 24.0025 39.6405 24.4198 39.2315C24.7995 38.8607 25.1373 38.4029 25.619 38.2206C25.9869 38.0993 26.3822 38.0993 26.7502 38.2206C27.7874 38.5189 28.5849 39.4138 29.0486 40.4185C29.5122 41.4232 29.6901 42.5418 29.864 43.6418L30.1238 45.2991C30.3167 46.3114 30.4098 47.3415 30.4016 48.3733C30.3596 49.4091 30.0998 50.4449 29.4942 51.2735C29.2599 51.6325 29.0661 52.0183 28.9166 52.4232C28.8271 52.6075 28.7696 52.8066 28.7468 53.0115C28.7483 53.1873 28.7637 53.3625 28.7927 53.5356C28.8767 54.4264 28.393 55.2571 28.2051 56.1313C28.1078 56.7174 28.0783 57.3134 28.1172 57.9067C28.1124 57.984 28.1276 58.0612 28.1612 58.1304C28.2042 58.1927 28.263 58.2415 28.3311 58.2712C28.463 58.3438 28.5989 58.4121 28.7308 58.4784C27.6279 58.7323 26.5008 58.856 25.3711 58.8471C23.3905 58.7995 21.4579 58.2257 19.4892 57.9874C19.4153 57.0511 19.6631 56.1479 19.7191 55.2115C19.7304 54.6004 19.6936 53.9894 19.6092 53.3844C19.4445 51.7306 19.46 50.0629 19.6551 48.4127C19.7231 47.8326 19.815 47.2547 19.841 46.6705C19.871 45.9786 19.811 45.2846 19.859 44.5989C19.905 43.9422 20.0588 43.2918 20.0748 42.633C20.0937 42.5605 20.0888 42.4835 20.0609 42.4142C20.0331 42.3448 19.9839 42.287 19.9209 42.2498Z" fill="#F4F6FB"/>
<path d="M22.1514 56.9703C24.222 56.9827 26.0467 57.0448 28.1112 57.1919C28.475 57.8134 27.6036 59.4893 28.0972 60.003C30.9273 62.9426 31.5568 66.8931 34.8425 69.2733C35.5241 69.7663 37.4407 70.1661 38.0403 70.7752C38.51 71.2579 37.7925 70.914 38.1402 71.5002C40.1388 74.881 44.6457 78.2183 47.2578 81.1247C49.4723 83.5878 50.6555 86.8733 51.9625 89.9579C52.746 91.8036 53.1617 93.7944 53.7613 95.7148C54.3609 97.6351 55.1863 99.5471 56.6093 100.923C57.6925 101.971 59.1255 102.721 59.7671 104.103C59.9477 104.549 60.1045 105.005 60.2368 105.47C60.6147 106.537 61.2437 107.49 62.0666 108.242C62.8895 108.994 63.8803 109.522 64.9495 109.777C65.5311 109.909 65.2653 110.914 65.3252 111.529C65.4072 112.37 66.1406 112.967 66.8561 113.371C67.9446 113.984 69.1273 114.396 70.3517 114.591C71.1032 114.709 71.9905 114.825 72.3503 115.515C72.4696 115.757 72.5254 116.027 72.5122 116.298C72.4862 117.686 71.2331 118.784 69.914 119.057C68.5949 119.331 67.2479 118.962 65.9648 118.566C65.7407 118.475 65.4986 118.442 65.2593 118.469C64.8995 118.541 64.6597 118.869 64.4058 119.152C63.6225 120.026 62.6071 120.639 61.4878 120.916C60.3684 121.192 59.1953 121.118 58.1162 120.704C57.4207 120.422 56.7612 119.993 56.0177 119.921C54.8705 119.809 53.8332 120.555 52.8459 121.164C51.8586 121.773 50.6115 122.295 49.5942 121.736C49.2584 121.553 48.9627 121.257 48.5949 121.209C48.0413 121.143 47.5476 121.64 46.996 121.624C46.3765 121.611 45.9508 121.002 45.537 120.526C44.6956 119.564 43.5583 118.936 42.3193 118.746C42.0871 118.696 41.8468 118.703 41.6178 118.767C41.3471 118.888 41.106 119.071 40.9123 119.302C40.3667 119.842 39.6891 120.337 38.9357 120.304C37.2908 120.244 36.3135 117.835 34.6766 118.001C32.5421 116.965 29.9 117.499 27.5596 117.793C25.2193 118.088 22.6271 118.173 20.7524 116.691C19.7651 115.908 19.0955 114.771 18.1742 113.903C16.7192 112.532 14.7566 111.933 12.8639 111.374C9.86599 110.487 6.75217 109.592 3.67032 110.075C3.11471 110.162 2.5571 110.282 1.99949 110.226C1.44188 110.17 0.870279 109.845 0.674416 109.302C0.588884 109.024 0.569683 108.728 0.618455 108.44C0.908252 106.095 3.05275 104.335 3.32656 101.987C3.46447 100.823 4.06804 99.804 4.71159 98.8407C5.25921 97.9795 5.759 97.0866 6.20855 96.1664C7.2738 94.0948 8.34305 92.0232 9.14649 89.8356C9.9919 87.5341 10.5335 85.127 11.0731 82.7281C11.5928 80.4142 11.8406 78.0443 12.2143 75.6993C12.4862 73.9944 12.9119 72.3206 13.3376 70.6488C14.5967 65.7102 15.8638 60.7426 17.9343 56.1106C19.2814 56.5042 20.7664 56.962 22.1514 56.9703Z" fill="#E3E8F4"/>
<path d="M22.1514 57.5918C24.2219 57.6042 26.0467 57.4592 28.1112 57.6063C28.475 58.2277 29.2444 58.9445 29.7381 59.4562C32.5681 62.3999 34.6706 66.1287 37.9543 68.5068C38.6359 69.0019 39.3674 69.437 39.9529 70.0439C40.4106 70.5452 40.8085 71.1016 41.1381 71.7012C43.1367 75.0841 44.6377 78.8481 47.2498 81.7545C49.4643 84.2176 50.6475 87.5031 51.9546 90.5877C52.738 92.4334 53.1537 94.4242 53.7533 96.3445C54.3529 98.2649 55.1783 100.177 56.6013 101.552C57.6845 102.601 59.1175 103.351 59.7591 104.732C59.9397 105.179 60.0965 105.635 60.2288 106.1C60.6067 107.167 61.2357 108.12 62.0586 108.872C62.8815 109.624 63.8723 110.151 64.9415 110.406C65.5231 110.539 65.2572 111.544 65.3172 112.159C65.3991 113 66.1326 113.597 66.8481 114C67.9366 114.613 69.1193 115.026 70.3437 115.221C71.0952 115.339 71.9825 115.455 72.3423 116.145C72.4616 116.386 72.5174 116.656 72.5042 116.928C72.4782 118.316 71.2251 119.413 69.906 119.687C68.5869 119.96 67.2399 119.592 65.9568 119.196C65.7327 119.105 65.4906 119.071 65.2513 119.099C64.8915 119.171 64.6517 119.498 64.3978 119.782C63.6145 120.656 62.5991 121.269 61.4798 121.545C60.3604 121.821 59.1873 121.748 58.1082 121.334C57.4127 121.052 56.7532 120.623 56.0097 120.551C54.8625 120.439 53.8252 121.185 52.8379 121.794C51.8506 122.403 50.6035 122.925 49.5862 122.365C49.2504 122.183 48.9547 121.887 48.5869 121.839C48.0333 121.773 47.5396 122.27 46.988 122.254C46.3685 122.241 45.9428 121.632 45.529 121.156C44.6909 120.193 43.5565 119.561 42.3193 119.368C42.0871 119.318 41.8468 119.325 41.6178 119.389C41.3471 119.51 41.106 119.693 40.9123 119.923C40.3667 120.464 39.6891 120.959 38.9357 120.926C37.2908 120.866 36.3135 118.456 34.6766 118.622C32.5421 117.586 29.9 118.121 27.5596 118.415C25.2192 118.709 22.6271 118.794 20.7524 117.313C19.7651 116.53 19.0955 115.393 18.1742 114.525C16.7192 113.153 14.7566 112.555 12.8639 111.995C9.86599 111.109 6.75217 110.214 3.67032 110.696C3.11471 110.783 2.5571 110.904 1.99949 110.848C1.44188 110.792 0.870279 110.466 0.674416 109.924C0.588884 109.645 0.569683 109.35 0.618455 109.062C0.908252 106.717 3.05275 104.956 3.32656 102.609C3.46447 101.445 4.06804 100.426 4.71159 99.4622C5.25921 98.601 5.759 97.7081 6.20855 96.7879C7.2738 94.7163 8.34305 92.6447 9.14649 90.4572C9.9919 88.1556 10.5335 85.7485 11.0731 83.3496C11.5928 81.0357 11.8406 78.6658 12.2143 76.3208C12.4862 74.6159 12.9119 72.9421 13.3376 71.2703C14.5967 66.3317 15.8638 61.3641 17.9343 56.7321C19.2814 57.1257 20.7664 57.5835 22.1514 57.5918Z" fill="#E3E8F4"/>
<path d="M22.1514 57.1774C24.2219 57.1899 26.0467 57.0449 28.1112 57.1919C28.475 57.8134 29.2444 58.5302 29.7381 59.0419C32.5681 61.9855 34.6706 65.7144 37.9543 68.0925C38.6359 68.5876 39.3674 69.0227 39.9529 69.6296C40.4106 70.1309 40.8085 70.6873 41.1381 71.2869C43.1367 74.6697 44.6377 78.4338 47.2498 81.3402C49.4643 83.8033 50.6475 87.0888 51.9546 90.1733C52.738 92.0191 53.1537 94.0099 53.7533 95.9302C54.3529 97.8505 55.1783 99.7626 56.6013 101.138C57.6845 102.186 59.1175 102.936 59.7591 104.318C59.9397 104.764 60.0965 105.221 60.2288 105.685C60.6067 106.753 61.2357 107.706 62.0586 108.458C62.8815 109.21 63.8723 109.737 64.9415 109.992C65.5231 110.125 65.2572 111.129 65.3172 111.745C65.3991 112.586 66.1326 113.182 66.8481 113.586C67.9366 114.199 69.1193 114.612 70.3437 114.806C71.0952 114.924 71.9825 115.04 72.3423 115.73C72.4616 115.972 72.5174 116.242 72.5042 116.513C72.4782 117.901 71.2251 118.999 69.906 119.273C68.5869 119.546 67.2399 119.177 65.9568 118.782C65.7327 118.69 65.4906 118.657 65.2513 118.684C64.8915 118.757 64.6517 119.084 64.3978 119.368C63.6145 120.241 62.5991 120.855 61.4798 121.131C60.3604 121.407 59.1873 121.334 58.1082 120.919C57.4127 120.638 56.7532 120.209 56.0097 120.136C54.8625 120.025 53.8252 120.77 52.8379 121.379C51.8506 121.988 50.6035 122.51 49.5862 121.951C49.2504 121.769 48.9547 121.473 48.5869 121.425C48.0333 121.359 47.5396 121.856 46.988 121.839C46.3685 121.827 45.9428 121.218 45.529 120.741C44.6909 119.779 43.5565 119.147 42.3193 118.954C42.0871 118.903 41.8468 118.91 41.6178 118.974C41.3471 119.096 41.106 119.278 40.9123 119.509C40.3667 120.049 39.6891 120.545 38.9357 120.511C37.2908 120.451 36.3135 118.042 34.6766 118.208C32.5421 117.172 29.9 117.706 27.5596 118.001C25.2192 118.295 22.6271 118.38 20.7524 116.899C19.7651 116.116 19.0955 114.978 18.1742 114.11C16.7192 112.739 14.7566 112.14 12.8639 111.581C9.86599 110.694 6.75217 109.799 3.67032 110.282C3.11471 110.369 2.5571 110.489 1.99949 110.433C1.44188 110.377 0.870279 110.052 0.674416 109.509C0.588884 109.231 0.569683 108.935 0.618455 108.648C0.908252 106.303 3.05275 104.542 3.32656 102.195C3.46447 101.03 4.06804 100.011 4.71159 99.0479C5.25921 98.1867 5.759 97.2938 6.20855 96.3735C7.2738 94.302 8.34305 92.2304 9.14649 90.0428C9.9919 87.7413 10.5335 85.3342 11.0731 82.9353C11.5928 80.6213 11.8406 78.2515 12.2143 75.9065C12.4862 74.2016 12.9119 72.5277 13.3376 70.856C14.5967 65.9174 15.8638 60.9498 17.9343 56.3177C19.2814 56.7113 20.7664 57.1692 22.1514 57.1774Z" fill="#F4F6FB"/>
<path d="M4.12604 66.6839C3.4665 67.4317 3.6164 68.6208 4.00213 69.5509C4.38786 70.4811 4.97345 71.3532 5.08137 72.36C5.11735 72.6956 5.09736 73.0353 5.15332 73.3688C5.19529 73.6091 5.27324 73.8391 5.3332 74.0752C5.40605 74.374 5.4621 74.677 5.50108 74.9826C5.71293 76.4575 5.85683 77.9449 5.93278 79.4364C6.0427 81.5453 6.01472 83.6603 5.98674 85.7733C5.94677 88.7295 4.58772 91.4971 3.92618 94.3724C3.80978 94.8171 3.73351 95.272 3.69834 95.7313C3.69538 96.3429 3.75365 96.9532 3.87222 97.5523C4.45623 101.323 4.3375 105.176 3.52246 108.9C4.12204 109.389 4.53975 110.21 4.39585 110.984C5.68495 111.218 7.03401 111.448 8.27514 111.024C9.02461 110.769 9.69814 110.284 10.4736 110.133C11.0732 110.019 11.7667 110.077 12.1904 109.625C12.3626 109.414 12.4881 109.167 12.5581 108.9C14.0211 104.488 13.6114 99.6839 13.5295 95.0208C13.4855 92.5142 13.5295 90.0055 13.4375 87.501C13.257 83.0355 12.581 78.6063 11.4229 74.301C10.8633 72.2295 10.3237 70.1579 9.22447 68.3204C9.00315 67.8956 8.68983 67.5297 8.30911 67.2515C7.89141 66.9863 7.38576 66.9221 6.8981 66.8641C5.87881 66.7502 5.14533 66.804 4.12604 66.6839Z" fill="#3F3D56"/>
<path opacity="0.05" d="M12.5581 108.902C12.4877 109.168 12.3622 109.415 12.1904 109.625C11.7667 110.079 11.0712 110.019 10.4736 110.135C10.3977 110.149 10.3217 110.168 10.2478 110.189C9.56623 110.377 8.95066 110.794 8.27714 111.017C7.03401 111.432 5.67895 111.212 4.39585 110.978C4.53975 110.203 4.12204 109.381 3.52246 108.892C4.33816 105.168 4.45756 101.317 3.87422 97.546C3.754 96.9472 3.69505 96.3368 3.69834 95.7251C3.73432 95.2659 3.81058 94.8111 3.92618 94.3662C4.58372 91.4888 5.94677 88.7212 5.98674 85.7651C6.01472 83.6521 6.0427 81.537 5.93477 79.4281C5.85616 77.9366 5.7116 76.452 5.50108 74.9743C5.46181 74.6689 5.40643 74.366 5.33519 74.0669C5.27324 73.8328 5.19529 73.6008 5.15532 73.3605C5.09736 73.0291 5.11735 72.6873 5.08137 72.3517C4.97345 71.3449 4.38985 70.4748 4.00213 69.5447C3.84023 69.1614 3.73512 68.7549 3.69034 68.339C3.64439 68.0466 3.6595 67.7473 3.73467 67.4614C3.80983 67.1755 3.94329 66.9097 4.12604 66.6818C4.81156 66.7605 5.36517 66.7584 5.96475 66.7854C6.25855 66.7978 6.56433 66.8185 6.8981 66.8579C7.38576 66.9138 7.8974 66.978 8.31111 67.2453C8.69149 67.5232 9.0042 67.8892 9.22447 68.3142C9.3324 68.4944 9.43433 68.6767 9.53226 68.8611C10.4296 70.5536 10.9193 72.418 11.4229 74.2927C12.5809 78.598 13.2568 83.0272 13.4375 87.4927C13.5395 89.9973 13.4855 92.5059 13.5295 95.0146C13.6134 99.688 14.0211 104.488 12.5581 108.902Z" fill="black"/>
<path d="M19.927 68.308C19.927 68.6705 19.927 69.0351 19.927 69.3976C19.9177 72.8972 19.909 76.3961 19.901 79.8942C19.901 81.334 19.901 82.7779 19.7571 84.2093C19.4034 87.9381 18.0883 91.5489 18.2282 95.2818C18.3281 97.9935 18.428 100.736 17.9024 103.396C17.7025 104.415 17.4107 105.418 17.2668 106.448C17.1229 107.477 17.1389 108.563 17.5327 109.522C17.8165 110.207 18.2941 110.856 18.2682 111.593C18.2387 111.91 18.1378 112.216 17.9736 112.485C17.8094 112.754 17.5865 112.979 17.3228 113.143C16.7915 113.463 16.2024 113.667 15.592 113.742C14.8305 113.872 14.0595 113.934 13.2876 113.926C12.1824 113.913 10.9233 113.663 10.3517 112.683C9.96796 112.024 9.99793 111.187 10.1818 110.439C10.2038 110.352 10.2258 110.268 10.2498 110.183C10.4376 109.53 10.7054 108.902 10.8493 108.239C11.0805 107.193 11.006 106.099 10.6355 105.097C10.5675 104.91 10.3537 104.558 10.1618 104.581C9.85604 103.763 9.81007 102.868 9.7621 101.99L9.4803 96.0442C9.42034 94.7494 9.36038 93.4381 9.6162 92.1703C9.81606 91.1346 10.2418 90.1485 10.3617 89.0982C10.4153 88.4674 10.412 87.8329 10.3517 87.2027C10.1277 83.9543 9.72194 80.722 9.13654 77.5223C9.1172 77.3595 9.06474 77.2027 8.98264 77.0624C8.85074 76.8718 8.6209 76.7828 8.45901 76.617C8.11925 76.2732 8.15123 75.7118 8.07128 75.2249C7.92738 74.3466 7.36578 73.6174 6.93208 72.8509C6.24184 71.6157 5.85541 70.2234 5.80687 68.7969C5.7823 68.1223 5.8353 67.447 5.96476 66.7854C5.98074 66.6963 6.00073 66.6072 6.02072 66.5182C10.3767 66.2299 14.7504 66.5082 19.0396 67.3468C19.3534 67.4069 19.7051 67.5001 19.851 67.7942C19.9149 67.957 19.9409 68.1329 19.927 68.308Z" fill="#3F3D56"/>
<path d="M44.4658 84.6133C46.6163 88.5368 48.7748 92.4686 50.4856 96.618C51.8746 99.9843 53.0138 103.57 55.3442 106.321C57.5267 108.896 60.5406 110.504 63.5005 112.051L60.8503 109.632C58.1902 107.197 55.4741 104.695 53.7853 101.461C52.8659 99.7005 52.2823 97.776 51.5868 95.9012C49.8143 91.0794 47.3459 86.5645 44.2659 82.5106C43.4097 81.3458 42.4887 80.2336 41.5079 79.1795C42.1854 81.044 43.5105 82.8731 44.4658 84.6133Z" fill="#E3E8F4"/>
<path d="M33.4955 111.496C34.143 112.876 34.8026 114.276 35.7899 115.42C35.8738 114.736 35.4221 114.123 35.0644 113.543C34.4168 112.488 34.0231 111.301 33.6294 110.127C33.2656 109.039 32.9279 107.539 32.1544 106.68C31.7587 108.155 32.8959 110.228 33.4955 111.496Z" fill="#E3E8F4"/>
<path d="M25.9988 85.6553C26.1866 86.6911 26.2965 87.7268 26.5484 88.7398C26.7958 89.6499 27.0995 90.5426 27.4577 91.4121L31.6708 102.296C31.6348 100.817 30.8713 99.4788 30.3857 98.0909C29.7861 96.386 29.5703 94.5692 29.0806 92.8167C28.6809 91.3956 28.1013 90.0387 27.6816 88.6238C27.098 86.6289 26.8522 84.5449 26.3945 82.5148C25.9811 80.7577 25.4652 79.0282 24.8496 77.3359C24.5698 76.5363 24.25 75.7056 23.6324 75.1524C23.0148 74.5993 21.9796 74.4419 21.396 75.0406C20.5745 75.8837 21.8197 76.412 22.2294 76.9609C24.1239 79.5159 25.4136 82.4959 25.9948 85.6615L25.9988 85.6553Z" fill="#E3E8F4"/>
<path d="M31.6527 63.1705C31.8763 63.4042 32.071 63.6659 32.2323 63.9494C32.4582 64.3803 32.5481 64.8837 32.8319 65.2835C32.3321 64.5564 31.7615 63.8844 31.1291 63.2782C30.7454 62.9364 30.3297 62.6422 29.9439 62.3004C29.6501 62.0394 28.363 60.9084 28.6188 60.523C29.7461 61.1176 30.7953 62.2114 31.6527 63.1705Z" fill="#E3E8F4"/>
<path d="M18.2781 24.2499C18.2322 24.6787 17.9783 25.0495 17.7605 25.4183C17.1252 26.5124 16.7708 27.7569 16.7312 29.0332C16.7192 29.4075 16.7353 29.7821 16.7792 30.1539C16.7952 30.2927 16.7992 30.4667 16.6832 30.5392C16.6209 30.5692 16.5511 30.5786 16.4834 30.5661C16.3475 30.5537 16.2156 30.5371 16.0837 30.5143C13.9472 30.1601 12.0765 28.6499 9.92596 28.2688C10.0587 28.2037 10.1764 28.11 10.2712 27.9939C10.366 27.8777 10.4357 27.7419 10.4756 27.5955C10.5333 27.4285 10.5768 27.2566 10.6055 27.0817C10.6375 26.8974 10.6615 26.713 10.6794 26.5328C10.8153 25.1987 10.6195 23.9723 10.5475 22.6175C10.4656 21.039 12.3463 21.559 13.4495 21.5382C14.3349 21.5217 15.2363 21.5072 16.0917 21.7558C16.9471 22.0043 17.7605 22.5533 18.1282 23.3902C18.2515 23.6577 18.3032 23.9546 18.2781 24.2499Z" fill="#CB8C8E"/>
<path d="M16.6832 30.5392C16.6208 30.5692 16.551 30.5786 16.4833 30.5661C16.3474 30.5537 16.2155 30.5371 16.0836 30.5144C15.8997 30.3362 15.7219 30.1498 15.552 29.955C15.1523 29.4951 14.7925 28.9897 14.3288 28.5982C13.6127 28.0215 12.7372 27.6977 11.8306 27.6742C11.3776 27.6868 10.9243 27.6604 10.4755 27.5955C10.5333 27.4285 10.5767 27.2566 10.6054 27.0818C10.6374 26.8974 10.6614 26.713 10.6794 26.5328C10.93 26.4994 11.1822 26.4808 11.4349 26.4769C11.7314 26.4324 12.0322 26.4261 12.3302 26.4582C12.8239 26.5349 13.2596 26.8208 13.7033 27.059C14.3168 27.3884 14.9744 27.637 15.544 28.0451C15.7199 28.1735 15.8877 28.3144 16.0556 28.4594C16.2835 28.652 16.5093 28.8467 16.7371 29.0373C16.7252 29.4116 16.7412 29.7863 16.7851 30.158C16.7951 30.2906 16.7991 30.4667 16.6832 30.5392Z" fill="#E3E8F4"/>
<path opacity="0.1" d="M19.927 68.308C19.927 68.6705 19.927 69.0351 19.927 69.3976C19.0955 69.4225 18.2461 69.5489 17.4187 69.6048C16.6413 69.6628 15.8618 69.6649 15.0823 69.6545C14.4725 69.6702 13.8635 69.6005 13.2716 69.4473C12.8459 69.3189 12.4462 69.1076 12.0225 68.975C11.223 68.7202 10.3796 68.7513 9.53423 68.8549C8.84671 68.9377 8.15319 69.062 7.46767 69.1262C7.02346 69.1905 6.57083 69.1422 6.14859 68.9854C6.03054 68.9299 5.91693 68.8648 5.80883 68.7907C5.63986 68.6731 5.4636 68.5672 5.2812 68.4737C4.78954 68.2458 4.24193 68.2831 3.69231 68.337C3.64636 68.0445 3.66147 67.7452 3.73663 67.4593C3.81179 67.1734 3.94526 66.9076 4.12801 66.6797C4.81353 66.7584 5.36714 66.7564 5.96672 66.7833C5.98271 66.6942 6.0027 66.6051 6.02268 66.5161C10.3787 66.2277 14.7523 66.5061 19.0416 67.3447C19.3554 67.4048 19.7071 67.498 19.853 67.7921C19.9164 67.9557 19.9418 68.1324 19.927 68.308Z" fill="black"/>
<path d="M10.8573 27.2703C10.4236 27.3241 9.9599 27.4381 9.6801 27.784C9.5988 27.877 9.54654 27.9932 9.5302 28.1175C9.54683 28.3115 9.583 28.5031 9.63812 28.6893C9.64256 28.94 9.57884 29.187 9.45425 29.4019C9.16446 30.0234 8.85467 30.6573 8.36701 31.1234C8.16715 31.316 7.93931 31.4756 7.73745 31.6641C7.5079 31.8895 7.29728 32.1349 7.10789 32.3974C6.68619 32.9443 6.25249 33.5181 6.0986 34.1997C5.82879 35.3825 5.26718 36.4991 4.89944 37.655C4.5317 38.811 4.29986 40.0415 4.49972 41.2388C4.59365 41.8064 4.78352 42.3513 4.91543 42.9106C5.12728 43.8076 5.18724 44.7356 5.41108 45.6285C5.55298 46.1857 5.75684 46.7243 5.91073 47.2857C6.24634 48.4886 6.33686 49.7507 6.17654 50.9918C6.02665 52.1249 6.27847 53.3306 5.83678 54.3767C5.65532 54.7625 5.45521 55.1387 5.2372 55.5036C4.95519 56.0404 4.70361 56.5938 4.48373 57.1609L3.25059 60.1771C3.00576 60.7448 2.79027 61.3257 2.60504 61.9172C2.0914 63.649 2.0894 65.4948 2.16135 67.3033C2.16995 67.3596 2.15782 67.4173 2.12738 67.4648C2.0894 67.5063 2.00346 67.4938 2.00146 67.4379C1.98548 67.5415 1.92152 67.7217 1.90753 67.8253C2.9568 68.2976 4.24789 67.5829 5.29316 68.0656C5.59695 68.2065 5.85477 68.4406 6.16056 68.5773C6.58242 68.7357 7.03527 68.7848 7.47963 68.7202C9.00457 68.5897 10.5695 68.0987 12.0325 68.5669C12.4582 68.7016 12.8559 68.9129 13.2816 69.0413C13.8741 69.1943 14.4838 69.264 15.0943 69.2485C15.8738 69.2609 16.6532 69.2588 17.4307 69.1987C19.1035 69.0724 20.8603 68.6933 22.4012 69.381C22.8988 69.0019 22.9368 68.4136 22.9568 67.7756C22.9941 66.5741 23.0314 65.3733 23.0687 64.1731L23.4824 50.9255C23.5409 50.0129 23.5081 49.0966 23.3845 48.191C23.1027 46.5503 22.2373 45.0837 21.3859 43.6771L17.4107 37.0481C17.1469 36.6089 17.4107 36.1179 17.5926 35.6353C17.8465 34.9426 18.0183 34.2206 18.1042 33.485C18.1682 32.9443 18.1642 32.3353 17.8104 31.9334C17.6105 31.7076 17.3287 31.5812 17.1009 31.3865C16.7691 31.1047 16.5693 30.7049 16.3694 30.3279C15.8149 29.2911 15.0097 28.4216 14.0331 27.8047C13.0517 27.2143 11.9845 27.1315 10.8573 27.2703Z" fill="#3F3D56"/>
<path opacity="0.1" d="M14.9584 33.282C13.5454 33.6859 12.67 35.1733 12.2823 36.6379C11.7387 38.6867 11.8706 40.8763 12.3503 42.9396C12.8299 45.0029 13.6493 46.9647 14.4788 48.9057C14.673 49.3803 14.8919 49.8436 15.1343 50.2937C15.8065 51.5121 16.8335 52.4787 18.0683 53.0551C19.3106 53.6235 20.7136 53.6878 21.9995 53.2353C22.236 53.1568 22.4587 53.0393 22.659 52.8873C23.3665 52.3238 23.4765 51.2797 23.5284 50.3558L23.7063 47.118C23.7244 46.9472 23.7163 46.7745 23.6823 46.6063C23.6022 46.3766 23.4793 46.1654 23.3206 45.9848C22.7353 45.1995 22.301 44.305 22.0415 43.3498C21.8596 42.6807 21.7637 41.9825 21.4839 41.3507C21.316 40.9696 21.0841 40.6215 20.9023 40.2466C20.5026 39.4387 20.3607 38.5334 20.1728 37.6509C20.0089 36.8803 19.813 36.1173 19.5852 35.3618C19.48 34.9435 19.3077 34.5464 19.0755 34.1872C18.5259 33.4166 17.5506 33.139 16.6472 32.9443C16.2202 32.8141 15.7694 32.7914 15.3322 32.878C14.8405 33.0168 14.4588 33.4104 14.103 33.7874" fill="black"/>
<path d="M15.1583 33.0748C13.7453 33.4788 12.8699 34.9662 12.4822 36.4308C11.9385 38.4795 12.0704 40.6692 12.5501 42.7325C13.0298 44.7957 13.8492 46.7575 14.6786 48.6986C14.8729 49.1731 15.0917 49.6364 15.3342 50.0865C16.0064 51.3049 17.0334 52.2716 18.2681 52.8479C19.5105 53.4163 20.9134 53.4806 22.1994 53.0281C22.4358 52.9496 22.6585 52.8321 22.8589 52.6801C23.5664 52.1167 23.6763 51.0726 23.7283 50.1487L23.9062 46.9108C23.9242 46.74 23.9161 46.5673 23.8822 46.3991C23.802 46.1694 23.6791 45.9583 23.5204 45.7777C22.9351 44.9924 22.5009 44.0978 22.2413 43.1426C22.0595 42.4735 21.9635 41.7754 21.6837 41.1436C21.5158 40.7624 21.284 40.4144 21.1021 40.0394C20.7024 39.2315 20.5605 38.3262 20.3726 37.4438C20.2088 36.6731 20.0129 35.9101 19.7851 35.1547C19.6799 34.7363 19.5076 34.3393 19.2754 33.9801C18.7258 33.2095 17.7505 32.9319 16.8471 32.7372C16.4201 32.607 15.9692 32.5842 15.532 32.6709C15.0404 32.8097 14.6586 33.2033 14.3029 33.5803" fill="#3F3D56"/>
<path d="M28.9447 41.7215C28.44 40.6283 28.346 39.3796 28.6808 38.2185C29.4643 38.4256 29.6801 39.623 30.4796 39.8364C30.5975 39.8674 30.7234 39.8736 30.8433 39.9006C31.4029 40.0187 31.7987 40.522 32.0885 41.0399C32.5538 41.836 32.8381 42.7315 32.9199 43.6584C32.9987 44.5893 32.7887 45.5219 32.3203 46.3204C32.3403 46.2893 30.9213 44.7812 30.8014 44.6258C30.5522 44.3234 30.3084 44.0147 30.0699 43.6998C29.8192 43.4082 29.5938 43.0941 29.3963 42.7614C29.3284 42.6288 29.3144 42.4755 29.2544 42.3347C29.1605 42.1254 29.0426 41.9266 28.9447 41.7215Z" fill="#CB8C8E"/>
<path d="M25.3012 53.9065C25.0575 55.8952 24.1837 57.7437 22.8169 59.162C22.5111 59.4748 22.1294 59.7835 21.7017 59.74C21.24 59.6903 20.9222 59.2553 20.5925 58.9114C19.9929 58.2899 19.1934 57.9191 18.5279 57.3763C18.1838 57.0825 17.858 56.7663 17.5526 56.4296C16.5733 55.3939 15.588 54.3581 14.8065 53.1504C14.3648 52.4709 13.9871 51.7417 13.4635 51.1285C13.0497 50.6417 12.5521 50.2398 12.1164 49.7758C11.6807 49.3118 11.297 48.7566 11.193 48.1185C11.0831 47.4432 10.3936 47.004 9.95991 46.4861C9.42523 45.8301 9.0391 45.0583 8.82986 44.2274C8.62062 43.3964 8.59359 42.5274 8.75075 41.6843C8.8207 41.3238 8.9666 40.9198 9.30237 40.7956C9.4357 40.7534 9.57669 40.7442 9.71408 40.7686C10.5575 40.8908 11.1831 41.6159 11.7287 42.2954C12.1027 42.7397 12.4467 43.2104 12.7579 43.704C13.4235 44.8247 13.7293 46.1298 14.0251 47.4101C14.1989 48.1579 14.9184 48.711 15.4361 49.262L16.7352 50.6438C17.045 50.9731 17.3547 51.3046 17.6945 51.6008C18.6238 52.417 19.7391 52.9639 20.8523 53.4652C20.9505 53.0922 21.0985 52.7352 21.292 52.4046C21.3911 52.242 21.522 52.1026 21.6762 51.9956C21.8304 51.8885 22.0045 51.8162 22.1874 51.7831C22.703 51.7148 23.1747 52.069 23.5864 52.4046L25.1153 53.6475C25.2012 53.72 25.3132 53.7988 25.3012 53.9065Z" fill="#E9C6AF"/>
<path opacity="0.1" d="M27.7335 41.5434C27.9212 41.752 28.0696 41.995 28.1712 42.2601C28.5109 42.9872 28.6644 43.7926 28.6169 44.5989C28.5637 45.033 28.4714 45.4609 28.3411 45.8771L27.8654 47.5737C27.1259 50.2046 26.3844 52.8417 25.3851 55.3793C24.5637 54.2752 23.1267 53.9417 21.9595 53.2518C21.8444 53.1927 21.7418 53.1103 21.6577 53.0095C21.5548 52.8536 21.5023 52.6679 21.5078 52.4791C21.5204 51.9696 21.6276 51.4674 21.8236 51C22.5511 48.9761 23.5604 46.9999 23.6783 44.8454C23.6829 44.4446 23.7076 44.0442 23.7523 43.646C23.8368 43.1715 24.0177 42.7211 24.283 42.3246C24.5483 41.9282 24.892 41.5948 25.2912 41.3466C25.9627 40.895 27.1379 40.9385 27.7335 41.5434Z" fill="black"/>
<path d="M27.5336 41.0628C27.7209 41.2717 27.8693 41.5147 27.9713 41.7795C28.3111 42.5066 28.4646 43.312 28.417 44.1183C28.3651 44.558 28.2727 44.9916 28.1412 45.413L27.6655 47.1096C26.9261 49.7405 26.1846 52.3776 25.1853 54.9153C24.3639 53.8132 22.9269 53.4776 21.7597 52.7878C21.6446 52.7294 21.542 52.6477 21.4579 52.5475C21.3556 52.3913 21.3031 52.2058 21.308 52.0172C21.3203 51.507 21.4275 51.0041 21.6238 50.536C22.3513 48.5121 23.3606 46.5379 23.4785 44.3814C23.483 43.9812 23.5077 43.5816 23.5524 43.184C23.6365 42.7091 23.8173 42.2583 24.0826 41.8614C24.348 41.4646 24.6919 41.1309 25.0913 40.8825C25.7629 40.4206 26.9381 40.4641 27.5336 41.0628Z" fill="#F4F6FB"/>
<path d="M22.9029 30.0524C23.3026 30.4936 23.4145 31.1317 23.4805 31.7345C23.6524 33.2923 23.6564 34.8998 23.1887 36.3914C22.721 37.8829 21.7297 39.2481 20.3407 39.8675C22.2753 40.1927 24.5737 40.3957 25.8848 38.8835C26.1406 38.5893 26.3485 38.2351 26.6743 38.0217C28.0633 37.1143 29.826 39.507 31.333 38.8275C32.3323 38.3801 32.4042 36.9797 32.3323 35.861L32.0585 31.7179C31.9186 29.6028 31.7407 27.3676 30.5715 25.6358C29.5163 24.0676 27.7875 23.1251 26.0307 22.5285C24.7676 22.1141 23.3606 21.8428 22.1314 22.3669C20.5625 23.0339 17.5346 25.6979 17.5526 27.668C17.5866 30.5951 21.5838 28.6064 22.9029 30.0524Z" fill="#3F3D56"/>
<path d="M24.094 46.2251C24.3184 46.2343 24.5428 46.2041 24.7575 46.136C25.0973 46.0055 25.3571 45.6782 25.7229 45.6243C25.9067 45.5974 26.1426 45.6243 26.2225 45.4441C26.2464 45.3602 26.2552 45.2724 26.2485 45.1852C26.2765 44.6818 26.8861 44.5078 27.2978 44.2385C27.5574 44.0498 27.7873 43.8206 27.9793 43.559L29.3983 41.8209C29.5287 41.6222 29.7182 41.473 29.9379 41.3963C30.1889 41.3673 30.4408 41.4417 30.6394 41.6034C31.4654 42.1726 32.1268 42.9633 32.5534 43.8914C32.98 44.8195 33.1557 45.8501 33.0617 46.8735C33.0584 47.0148 33.0228 47.1532 32.9578 47.2774C32.736 47.6379 32.2143 47.5509 31.8206 47.6793C31.0671 47.9238 30.8373 48.9368 30.1917 49.407C29.9019 49.6142 29.5442 49.7032 29.2624 49.9187C28.9806 50.1341 28.7647 50.5112 28.5089 50.8032C28.1092 51.2714 27.5396 51.5594 26.992 51.839L25.3192 52.6842C24.9901 52.8617 24.6471 53.01 24.2939 53.1275C23.6839 53.2754 23.0564 53.3305 22.4312 53.2912L21.206 53.2746C21.0679 53.2874 20.9291 53.2586 20.8063 53.1918C20.7342 53.1358 20.6737 53.0654 20.6284 52.9846C19.9989 52.0048 19.871 50.739 20.0948 49.5852C20.2807 48.6281 20.7184 47.3064 21.3759 46.5793C21.9475 45.9537 23.3026 46.2417 24.094 46.2251Z" fill="#3F3D56"/>
<path d="M19.2015 19.3838C19.1651 19.1869 19.1903 18.9832 19.2733 18.8021C19.3563 18.6211 19.4929 18.4722 19.6631 18.3771L21.1821 17.1942L20.8703 16.7239L21.4559 16.204C21.4078 16.1349 21.3415 16.0817 21.2649 16.0508C21.1883 16.0199 21.1047 16.0127 21.0242 16.03C21.1161 15.3899 20.5885 14.8492 20.0868 14.468C19.0656 13.6933 17.8884 13.049 16.6373 12.962C16.0237 12.9206 15.4081 13.0117 14.7945 12.962C13.9671 12.9081 13.1637 12.6181 12.3343 12.585C11.5048 12.5518 10.5735 12.8895 10.2257 13.6622C10.0778 13.9978 10.0579 14.3769 9.94594 14.727C9.69611 15.5017 9.03657 16.0383 8.47497 16.6121C7.91336 17.1859 7.39172 17.9545 7.54761 18.7541C7.60901 19.0119 7.70523 19.2595 7.83341 19.4895L10.9312 25.6897C11.0349 25.4885 11.1835 25.316 11.3647 25.1866C11.5458 25.0572 11.7543 24.9747 11.9725 24.946C12.4822 24.8838 12.9718 25.12 13.4875 25.1863C13.8699 25.2296 14.2567 25.1769 14.6153 25.0327C14.9739 24.8884 15.2938 24.6569 15.548 24.3577C16.2315 23.5415 16.3974 21.4575 17.5846 21.2503C18.0043 21.1757 18.6758 21.7247 19.0416 21.5072C19.4713 21.2627 19.2095 19.8437 19.2015 19.3838Z" fill="#3F3D56"/>
<g opacity="0.1">
<path opacity="0.1" d="M21.5398 39.2335C22.9289 38.6121 23.9182 37.2448 24.3878 35.7554C24.8575 34.2659 24.8515 32.648 24.6796 31.0985C24.6137 30.4977 24.5038 29.8556 24.102 29.4164C22.783 27.9663 18.7858 29.9591 18.7498 27.0465C18.7278 25.3665 20.9323 23.1831 22.5471 22.1618C22.4025 22.2017 22.2603 22.2509 22.1214 22.3089C20.5525 22.9759 17.5246 25.642 17.5426 27.61C17.5786 30.5226 21.5758 28.536 22.8949 29.9819C23.2946 30.4211 23.4065 31.0612 23.4725 31.664C23.6444 33.2198 23.6483 34.8294 23.1807 36.3188C22.713 37.8083 21.7217 39.1776 20.3327 39.797C22.0395 40.0829 24.0281 40.2734 25.3731 39.277C24.192 39.5981 22.7909 39.4427 21.5398 39.2335Z" fill="black"/>
<path opacity="0.1" d="M27.8734 37.3858C27.7285 37.4857 27.5985 37.6072 27.4877 37.7464C28.7128 37.8293 30.1058 39.3089 31.333 38.7556C31.5476 38.6581 31.7347 38.5055 31.8766 38.3121C30.5335 38.2583 29.0666 36.6066 27.8734 37.3858Z" fill="black"/>
</g>
<g opacity="0.1">
<path opacity="0.1" d="M20.8805 15.2273C20.8504 15.182 20.8184 15.1368 20.7864 15.0936C20.7859 15.1411 20.7825 15.1885 20.7764 15.2355C20.8106 15.2286 20.8456 15.2259 20.8805 15.2273Z" fill="black"/>
<path opacity="0.1" d="M21.5078 16.2054C21.4598 16.1363 21.3934 16.0831 21.3168 16.0523C21.2402 16.0214 21.1566 16.0142 21.0761 16.0314C21.0984 15.875 21.0847 15.7153 21.0362 15.5653L20.6225 15.932L20.9343 16.4002L19.4153 17.5851C19.2451 17.6802 19.1085 17.8291 19.0255 18.0102C18.9425 18.1912 18.9173 18.395 18.9536 18.5919C18.9536 19.0518 19.2234 20.4708 18.7917 20.7256C18.428 20.9431 17.7545 20.3941 17.3368 20.4687C16.1496 20.6759 15.9837 22.7474 15.3002 23.5761C15.046 23.8753 14.7261 24.1069 14.3675 24.2511C14.0089 24.3953 13.622 24.448 13.2396 24.4047C12.73 24.3405 12.2403 24.1043 11.7247 24.1665C11.5063 24.1955 11.2977 24.2782 11.1163 24.4075C10.9348 24.5368 10.7858 24.7092 10.6814 24.9102C9.65148 22.8469 8.62153 20.7843 7.59158 18.7224V18.768C7.65455 19.0256 7.75139 19.2731 7.87938 19.5034L10.9732 25.6911C11.0776 25.4901 11.2266 25.3178 11.4081 25.1885C11.5895 25.0591 11.7981 24.9765 12.0165 24.9474C12.5261 24.8853 13.0158 25.1214 13.5314 25.1877C13.9138 25.231 14.3007 25.1783 14.6593 25.0341C15.0179 24.8899 15.3378 24.6584 15.592 24.3591C16.2755 23.5429 16.4414 21.4589 17.6286 21.2518C18.0463 21.1772 18.7198 21.7262 19.0835 21.5086C19.5152 21.2538 19.2534 19.8348 19.2454 19.3749C19.2237 19.1634 19.254 18.9496 19.3334 18.7535C19.4281 18.5956 19.5559 18.4618 19.7071 18.3619L21.226 17.1791L20.9143 16.7088L21.5078 16.2054Z" fill="black"/>
</g>
<path opacity="0.1" d="M3.99006 61.1797C3.7902 62.0643 3.66429 62.9675 3.39048 63.8313C3.27056 64.2208 3.12267 64.5999 3.00475 64.9893C2.89882 65.3436 2.81888 65.7019 2.73693 66.0624L2.41116 67.5125C2.50981 67.5072 2.60593 67.4783 2.69195 67.428C2.77796 67.3776 2.85152 67.3073 2.90682 67.2225C3.01623 67.0518 3.09917 66.8645 3.15264 66.6673L3.69826 64.9852L4.09798 63.7422C4.66559 61.9918 5.23519 60.2372 5.66689 58.4432C5.77481 57.9999 5.86675 57.5566 5.96068 57.1091C5.99666 56.9372 6.25847 55.978 5.99066 56.0588C5.80079 56.1148 5.47902 56.989 5.39108 57.1795C5.19122 57.5607 5.02733 57.9502 4.86545 58.3458C4.49546 59.2626 4.20258 60.2107 3.99006 61.1797Z" fill="black"/>
<path d="M14.4148 37.9826C14.4148 37.9826 13.5114 37.6446 13.2896 38.0468C13.2896 38.0468 14.9324 38.6689 15.2642 39.5646C15.2642 39.5646 15.6879 39.1126 15.1083 38.5382L15.0004 37.6964L14.4148 37.9826Z" fill="#00A66C"/>
<path d="M15.9138 36.7125C15.9138 36.7125 15.9638 36.2857 15.7559 36.2401C15.548 36.1946 14.141 36.2795 14.3669 37.8974C14.5927 39.5153 16.2196 38.9083 16.2196 38.9083L16.9331 38.0465C16.9331 38.0465 17.085 36.9051 16.0857 36.6296L15.9138 36.7125Z" fill="#62674A"/>
<path opacity="0.1" d="M14.7806 35.8341C14.7806 35.8341 13.5534 36.4763 14.149 38.0901L14.6107 37.8125C14.6107 37.8125 15.1883 36.4121 14.7806 35.8341Z" fill="black"/>
<path d="M14.7366 35.801C14.7366 35.801 13.5114 36.4432 14.107 38.0569L14.4647 38.2745C14.4647 38.2745 15.1463 36.3789 14.7366 35.801Z" fill="#62674A"/>
<path opacity="0.1" d="M16.7392 37.4582C16.8035 37.6827 16.9351 37.8802 17.1149 38.0219C17.4027 38.2291 16.8291 38.7079 16.8291 38.7079C16.8291 38.7079 16.0537 39.6218 15.3202 39.1762C14.8825 38.4115 15.2123 38.3058 15.2123 38.3058C15.2123 38.3058 16.1276 37.2634 16.7392 37.4582Z" fill="black"/>
<path d="M16.7691 37.5017C16.8335 37.7262 16.9651 37.9237 17.1449 38.0654C17.4307 38.2727 16.8571 38.7514 16.8571 38.7514C16.8571 38.7514 16.0836 39.6653 15.3481 39.2197C14.6127 38.7742 15.2402 38.3514 15.2402 38.3514C15.2402 38.3514 16.1476 37.3069 16.7691 37.5017Z" fill="#62674A"/>
<path d="M13.9871 35.8219C13.9871 35.8219 13.0797 36.1493 13.1517 36.6073C13.1517 36.6073 14.8065 36.0188 15.608 36.4975C15.608 36.4975 15.6619 35.8758 14.8645 35.8012L14.2649 35.2168L13.9871 35.8219Z" fill="#5F3839"/>
<path d="M14.3708 33.8516C14.3708 33.8516 14.151 33.487 13.9711 33.5865C13.7912 33.6859 12.7419 34.6699 13.8951 35.7761C15.0483 36.8823 15.9497 35.3618 15.9497 35.3618L15.9697 34.2266C15.9697 34.2266 15.3941 33.2405 14.4507 33.6797L14.3708 33.8516Z" fill="#62674A"/>
<path opacity="0.1" d="M12.9718 33.9138C12.9718 33.9138 12.4082 35.2127 13.8532 36.0786L14.043 35.5627C14.043 35.5627 13.6353 34.0982 12.9718 33.9138Z" fill="black"/>
<path d="M12.9118 33.9158C12.9118 33.9158 12.3502 35.2147 13.7932 36.0806L14.2029 36.0164C14.2029 36.0164 13.5813 34.0981 12.9118 33.9158Z" fill="#62674A"/>
<path opacity="0.1" d="M15.4741 33.8972C15.6607 34.0301 15.8832 34.0983 16.1096 34.0919C16.4614 34.0691 16.3095 34.8108 16.3095 34.8108C16.3095 34.8108 16.2615 36.0268 15.4201 36.1594C14.6207 35.8507 14.8085 35.5545 14.8085 35.5545C14.8085 35.5545 14.8805 34.1458 15.4741 33.8972Z" fill="black"/>
<path d="M15.5181 33.9179C15.7045 34.0512 15.9272 34.1194 16.1536 34.1127C16.5054 34.0899 16.3535 34.8315 16.3535 34.8315C16.3535 34.8315 16.3075 36.0475 15.4661 36.1801C14.6247 36.3127 14.8545 35.5752 14.8545 35.5752C14.8545 35.5752 14.9245 34.1665 15.5181 33.9179Z" fill="#62674A"/>
<path d="M10.9032 36.2091C10.9032 36.2091 11.191 35.9481 11.3489 36.2919L11.215 37.0626L10.3896 44.6942L9.86197 45.6948L10.9032 36.2091Z" fill="#00A66C"/>
<path d="M13.3496 34.4338L9.89197 46.0759L10.2057 46.2562L13.6354 34.5104L13.3496 34.4338Z" fill="#00A66C"/>
<path d="M12.4042 39.7121C12.4042 39.7121 11.6288 42.7511 10.7734 43.9629C9.91798 45.1748 10.0799 46.1795 10.0799 46.1795L10.3597 46.2686L12.6581 39.9234L12.4042 39.7121Z" fill="#00A66C"/>
<path d="M15.2303 37.0377L10.2977 45.9413L10.5336 46.0739L15.62 37.1019L15.2303 37.0377Z" fill="#00A66C"/>
<path d="M16.3195 39.3889L10.1758 46.0262L10.3596 46.2727L16.5813 39.5381L16.3195 39.3889Z" fill="#00A66C"/>
<path d="M16.7132 39.882C16.7132 39.882 16.6313 39.5091 16.3555 39.5795C16.0796 39.65 10.6494 45.8999 10.6494 45.8999L10.8793 46.0863L16.7132 39.882Z" fill="#00A66C"/>
<path d="M10.6374 35.8074C10.6374 35.8074 9.71008 36.0685 9.75405 36.5307C9.75405 36.5307 11.4429 36.0623 12.2103 36.597C12.2103 36.597 12.3063 35.9753 11.5148 35.8489L10.9592 35.2271L10.6374 35.8074Z" fill="#00A66C"/>
<path d="M11.1571 33.8682C11.1571 33.8682 10.9572 33.4891 10.7673 33.5761C10.5775 33.6631 9.46824 34.5684 10.5435 35.7533C11.6187 36.9382 12.622 35.4799 12.622 35.4799L12.728 34.3488C12.728 34.3488 12.2203 33.3255 11.249 33.6942L11.1571 33.8682Z" fill="#62674A"/>
<path opacity="0.1" d="M9.74812 33.831C9.74812 33.831 9.09857 35.0863 10.4816 36.0537L10.7054 35.5524C10.7054 35.5524 10.4017 34.0609 9.74812 33.831Z" fill="black"/>
<path d="M9.69407 33.8288C9.69407 33.8288 9.04452 35.0842 10.4276 36.0516L10.8413 36.0185C10.8413 36.0185 10.3496 34.0588 9.69407 33.8288Z" fill="#62674A"/>
<path opacity="0.1" d="M12.2503 33.9946C12.4287 34.138 12.6463 34.2192 12.8719 34.2266C13.2237 34.2266 13.0158 34.9578 13.0158 34.9578C13.0158 34.9578 12.8879 36.1676 12.0405 36.2401C11.259 35.8755 11.4709 35.5917 11.4709 35.5917C11.4709 35.5917 11.6428 34.1996 12.2503 33.9946Z" fill="black"/>
<path d="M12.2923 34.0194C12.47 34.1652 12.6874 34.2493 12.9138 34.2597C13.2656 34.2597 13.0577 34.991 13.0577 34.991C13.0577 34.991 12.9298 36.1987 12.0824 36.2712C11.235 36.3437 11.5128 35.6249 11.5128 35.6249C11.5128 35.6249 11.6847 34.2266 12.2923 34.0194Z" fill="#62674A"/>
<path d="M13.0018 34.0196C13.0018 34.0196 12.0745 34.2807 12.1164 34.7429C12.1164 34.7429 13.8053 34.2745 14.5727 34.8071C14.5727 34.8071 14.6706 34.1854 13.8772 34.0611L13.3216 33.4394L13.0018 34.0196Z" fill="#00A66C"/>
<path d="M13.5195 32.0846C13.5195 32.0846 13.3196 31.7055 13.1298 31.7925C12.9399 31.8795 11.8307 32.7848 12.9059 33.9697C13.9812 35.1546 14.9845 33.6963 14.9845 33.6963L15.0904 32.5652C15.0904 32.5652 14.5827 31.5418 13.6114 31.9106L13.5195 32.0846Z" fill="#62674A"/>
<path opacity="0.1" d="M12.1104 32.0473C12.1104 32.0473 11.4608 33.3026 12.8439 34.2701L13.0677 33.7687C13.0677 33.7687 12.7719 32.2772 12.1104 32.0473Z" fill="black"/>
<path d="M12.0564 32.0452C12.0564 32.0452 11.4089 33.3006 12.7899 34.268L13.2036 34.2328C13.2036 34.2328 12.712 32.2752 12.0564 32.0452Z" fill="#62674A"/>
<path opacity="0.1" d="M14.6147 32.2109C14.7915 32.3567 15.0085 32.4401 15.2343 32.4492C15.586 32.4492 15.3782 33.1804 15.3782 33.1804C15.3782 33.1804 15.2502 34.3902 14.4028 34.4627C13.6234 34.0961 13.8332 33.8143 13.8332 33.8143C13.8332 33.8143 14.0051 32.416 14.6147 32.2109Z" fill="black"/>
<path d="M14.6566 32.2338C14.8334 32.3795 15.0505 32.463 15.2762 32.472C15.6279 32.472 15.4201 33.2033 15.4201 33.2033C15.4201 33.2033 15.2922 34.4131 14.4448 34.4856C13.5974 34.5581 13.8752 33.8372 13.8752 33.8372C13.8752 33.8372 14.0471 32.4389 14.6566 32.2338Z" fill="#62674A"/>
<path d="M14.9984 36.5054C14.9984 36.5054 14.095 36.1676 13.8732 36.5696C13.8732 36.5696 15.516 37.1913 15.8498 38.0866C15.8498 38.0866 16.2735 37.6348 15.6939 37.0608L15.586 36.2194L14.9984 36.5054Z" fill="#00A66C"/>
<path d="M16.4974 35.2293C16.4974 35.2293 16.5473 34.8025 16.3395 34.7569C16.1316 34.7114 14.7266 34.7963 14.9405 36.4142C15.1543 38.0321 16.7952 37.4251 16.7952 37.4251L17.5087 36.5633C17.5087 36.5633 17.6586 35.4219 16.6593 35.1464L16.4974 35.2293Z" fill="#62674A"/>
<path opacity="0.1" d="M15.3701 34.3592C15.3701 34.3592 14.143 35.0013 14.7406 36.6151L15.2002 36.3375C15.2002 36.3375 15.7699 34.9371 15.3701 34.3592Z" fill="black"/>
<path d="M15.3222 34.326C15.3222 34.326 14.095 34.9682 14.6906 36.582L15.0484 36.7995C15.0484 36.7995 15.7299 34.904 15.3222 34.326Z" fill="#62674A"/>
<path opacity="0.1" d="M17.3228 35.9833C17.3881 36.2073 17.5195 36.4044 17.6985 36.5469C17.9863 36.7542 17.4127 37.2329 17.4127 37.2329C17.4127 37.2329 16.6372 38.1468 15.9038 37.7012C15.4681 36.9386 15.7958 36.8309 15.7958 36.8309C15.7958 36.8309 16.7112 35.7885 17.3228 35.9833Z" fill="black"/>
<path d="M17.3448 36.0268C17.4093 36.2517 17.5408 36.4497 17.7205 36.5925C18.0083 36.7998 17.4347 37.2764 17.4347 37.2764C17.4347 37.2764 16.6592 38.1903 15.9258 37.7468C15.1923 37.3033 15.8178 36.8764 15.8178 36.8764C15.8178 36.8764 16.7332 35.832 17.3448 36.0268Z" fill="#62674A"/>
<path d="M16.4474 39.0431C16.4474 39.0431 15.544 38.7053 15.3242 39.1094C15.3242 39.1094 16.965 39.7311 17.2988 40.6263C17.2988 40.6263 17.7225 40.1725 17.1429 39.6005L17.035 38.7571L16.4474 39.0431Z" fill="#00A66C"/>
<path d="M17.9464 37.7648C17.9464 37.7648 17.9963 37.3381 17.7885 37.2946C17.5806 37.2511 16.1756 37.3319 16.4014 38.9519C16.6273 40.5718 18.2542 39.9649 18.2542 39.9649L18.9677 39.101C18.9677 39.101 19.1175 37.9616 18.1182 37.6861L17.9464 37.7648Z" fill="#62674A"/>
<path opacity="0.1" d="M16.8131 36.8948C16.8131 36.8948 15.586 37.5369 16.1836 39.1527L16.6432 38.8752C16.6432 38.8752 17.2228 37.4727 16.8131 36.8948Z" fill="black"/>
<path d="M16.7692 36.8616C16.7692 36.8616 15.542 37.5038 16.1376 39.1176L16.4954 39.3351C16.4954 39.3351 17.1789 37.4396 16.7692 36.8616Z" fill="#62674A"/>
<path opacity="0.1" d="M18.7677 38.5189C18.832 38.7434 18.9628 38.9413 19.1415 39.0846C19.4293 39.2919 18.8557 39.7685 18.8557 39.7685C18.8557 39.7685 18.0802 40.6824 17.3467 40.2389C16.911 39.4742 17.2388 39.3685 17.2388 39.3685C17.2388 39.3685 18.1682 38.3241 18.7677 38.5189Z" fill="black"/>
<path d="M18.7937 38.5645C18.8581 38.7891 18.9897 38.9866 19.1695 39.1284C19.4573 39.3357 18.8837 39.8147 18.8837 39.8147C18.8837 39.8147 18.1082 40.729 17.3747 40.2832C16.6412 39.8375 17.2668 39.4124 17.2668 39.4124C17.2668 39.4124 18.1822 38.3696 18.7937 38.5645Z" fill="#62674A"/>
<path d="M16.6313 39.8945C16.6313 39.8945 15.7279 39.5567 15.506 39.9608C15.506 39.9608 17.1489 40.5825 17.4807 41.4778C17.4807 41.4778 17.9064 41.0239 17.3268 40.4519L17.2168 39.6085L16.6313 39.8945Z" fill="#00A66C"/>
<path d="M18.1303 38.6162C18.1303 38.6162 18.1802 38.1915 17.9724 38.146C17.7645 38.1004 16.3595 38.1833 16.5833 39.8032C16.8072 41.4232 18.4361 40.8162 18.4361 40.8162L19.1496 39.9544C19.1496 39.9544 19.3014 38.813 18.3021 38.5375L18.1303 38.6162Z" fill="#62674A"/>
<path opacity="0.1" d="M16.997 37.7483C16.997 37.7483 15.7699 38.3884 16.3695 40.0042L16.8311 39.7266C16.8311 39.7266 17.4047 38.3242 16.997 37.7483Z" fill="black"/>
<path d="M16.9531 37.713C16.9531 37.713 15.7279 38.3552 16.3235 39.969L16.6812 40.1885C16.6812 40.1885 17.3688 38.291 16.9531 37.713Z" fill="#62674A"/>
<path opacity="0.1" d="M18.9556 39.3703C19.0202 39.5952 19.1517 39.7932 19.3314 39.936C19.6192 40.1433 19.0456 40.6199 19.0456 40.6199C19.0456 40.6199 18.2701 41.5359 17.5366 41.0903C17.0989 40.3256 17.4287 40.2199 17.4287 40.2199C17.4287 40.2199 18.3441 39.1755 18.9556 39.3703Z" fill="black"/>
<path d="M18.9777 39.4159C19.042 39.6403 19.1736 39.8376 19.3534 39.9793C19.6412 40.1865 19.0656 40.665 19.0656 40.665C19.0656 40.665 18.2921 41.5785 17.5587 41.1332C16.8252 40.6878 17.4487 40.2631 17.4487 40.2631C17.4487 40.2631 18.3681 39.2211 18.9777 39.4159Z" fill="#62674A"/>
<path d="M12.2303 39.3393C12.2303 39.3393 11.3269 38.9995 11.1051 39.4036C11.1051 39.4036 12.748 40.0253 13.0797 40.9205C13.0797 40.9205 13.5034 40.4687 12.9238 39.8947L12.8159 39.0513L12.2303 39.3393Z" fill="#00A66C"/>
<path d="M13.7293 38.059C13.7293 38.059 13.7793 37.6343 13.5714 37.5887C13.3636 37.5432 11.9566 37.6281 12.1824 39.246C12.4083 40.8639 14.0351 40.259 14.0351 40.259L14.7486 39.3972C14.7486 39.3972 14.9005 38.2558 13.9012 37.9803L13.7293 38.059Z" fill="#62674A"/>
<path opacity="0.1" d="M12.5961 37.191C12.5961 37.191 11.3729 37.8332 11.9725 39.447L12.4342 39.1694C12.4342 39.1694 13.0038 37.769 12.5961 37.191Z" fill="black"/>
<path d="M12.5521 37.1579C12.5521 37.1579 11.3269 37.798 11.9225 39.4138L12.2803 39.621C12.2803 39.621 12.9718 37.7358 12.5521 37.1579Z" fill="#62674A"/>
<path opacity="0.1" d="M14.5547 38.813C14.6188 39.0382 14.7504 39.2364 14.9304 39.3788C15.2182 39.586 14.6446 40.0647 14.6446 40.0647C14.6446 40.0647 13.8692 40.9786 13.1357 40.5331C12.698 39.7684 13.0278 39.6627 13.0278 39.6627C13.0278 39.6627 13.9431 38.6182 14.5547 38.813Z" fill="black"/>
<path d="M14.5707 38.8586C14.635 39.0832 14.7666 39.2807 14.9465 39.4226C15.2323 39.6299 14.6587 40.1088 14.6587 40.1088C14.6587 40.1088 13.8852 41.0232 13.1497 40.5774C12.4142 40.1316 13.0418 39.7066 13.0418 39.7066C13.0418 39.7066 13.9711 38.6637 14.5707 38.8586Z" fill="#62674A"/>
<path d="M12.724 36.5488C12.724 36.5488 11.8186 36.2091 11.5988 36.6131C11.5988 36.6131 13.2416 37.2345 13.5734 38.1294C13.5734 38.1294 13.9971 37.6778 13.4175 37.104L13.3096 36.2609L12.724 36.5488Z" fill="#00A66C"/>
<path d="M14.223 35.2624C14.223 35.2624 14.2729 34.848 14.0651 34.7921C13.8572 34.7362 12.4502 34.8315 12.6661 36.4494C12.8819 38.0673 14.5188 37.4624 14.5188 37.4624L15.2323 36.6006C15.2323 36.6006 15.3822 35.4592 14.3829 35.1836L14.223 35.2624Z" fill="#62674A"/>
<path opacity="0.1" d="M13.0877 34.4006C13.0877 34.4006 11.8626 35.0407 12.4582 36.6565L12.9198 36.379C12.9198 36.379 13.4974 34.9786 13.0877 34.4006Z" fill="black"/>
<path d="M13.0458 34.3675C13.0458 34.3675 11.8186 35.0076 12.4162 36.6234L12.772 36.8409C12.772 36.8409 13.4555 34.9454 13.0458 34.3675Z" fill="#62674A"/>
<path opacity="0.1" d="M15.0484 36.0227C15.113 36.2477 15.2445 36.4458 15.4241 36.5887C15.7119 36.796 15.1383 37.275 15.1383 37.275C15.1383 37.275 14.3629 38.1893 13.6294 37.7436C13.1917 36.9785 13.5215 36.8727 13.5215 36.8727C13.5215 36.8727 14.4348 35.8278 15.0484 36.0227Z" fill="black"/>
<path d="M15.0683 36.0682C15.1327 36.2927 15.2643 36.4902 15.4441 36.6319C15.7319 36.8392 15.1583 37.3179 15.1583 37.3179C15.1583 37.3179 14.3828 38.2318 13.6493 37.7862C12.9158 37.3407 13.5414 36.9158 13.5414 36.9158C13.5414 36.9158 14.4568 35.8838 15.0683 36.0682Z" fill="#62674A"/>
<path d="M9.71407 40.7686C9.71407 40.7686 12.1903 41.0524 13.5354 45.5166C14.8805 49.9808 10.6494 46.6415 10.6494 46.6415C10.6494 46.6415 9.5342 46.8735 9.36032 44.543C9.18644 42.2125 9.71407 40.7686 9.71407 40.7686Z" fill="#E9C6AF"/>
<path d="M9.98889 44.0454L9.39694 44.3176C9.32731 44.3496 9.29573 44.4336 9.32638 44.5052C9.35704 44.5769 9.43833 44.609 9.50795 44.577L10.0999 44.3048C10.1695 44.2728 10.2011 44.1888 10.1705 44.1171C10.1398 44.0455 10.0585 44.0134 9.98889 44.0454Z" fill="#E3E8F4"/>
<path opacity="0.1" d="M3.89625 27.2717L3.49653 26.8946C2.06153 25.5274 1.11219 24.6408 1.11219 23.5345C1.1087 23.3242 1.14596 23.1153 1.22176 22.9202C1.29756 22.7251 1.41036 22.5477 1.55349 22.3986C1.69661 22.2495 1.86715 22.1316 2.055 22.0521C2.24285 21.9725 2.4442 21.9328 2.64712 21.9353C2.88659 21.9366 3.12292 21.9919 3.33967 22.0974C3.55643 22.203 3.7484 22.3562 3.90224 22.5464C4.05582 22.3559 4.24773 22.2024 4.46455 22.0969C4.68136 21.9913 4.91782 21.9362 5.15736 21.9353C5.36012 21.933 5.56125 21.973 5.74887 22.0527C5.93649 22.1324 6.10678 22.2502 6.24969 22.3993C6.3926 22.5484 6.50523 22.7257 6.5809 22.9207C6.65658 23.1157 6.69378 23.3244 6.69029 23.5345C6.69029 24.6408 5.74295 25.5274 4.30596 26.8946L3.89625 27.2717Z" fill="#62674A"/>
<path opacity="0.1" d="M8.49883 5.33644L8.09911 4.95735C6.66211 3.59218 5.71278 2.70348 5.71278 1.59933C5.70929 1.38902 5.74655 1.18012 5.82235 0.984999C5.89815 0.789878 6.01095 0.612506 6.15407 0.463384C6.2972 0.314262 6.46773 0.196421 6.65559 0.116841C6.84344 0.0372605 7.04478 -0.00244251 7.24771 8.28091e-05C7.48718 0.00136069 7.72351 0.0566918 7.94026 0.162228C8.15701 0.267763 8.34899 0.420971 8.50283 0.611196C8.65658 0.420864 8.84854 0.267581 9.06531 0.162036C9.28208 0.05649 9.51845 0.00122116 9.75795 8.28091e-05C9.9607 -0.00216344 10.1618 0.0377458 10.3495 0.117451C10.5371 0.197156 10.7074 0.31504 10.8503 0.464134C10.9932 0.613227 11.1058 0.790504 11.1815 0.985486C11.2572 1.18047 11.2944 1.3892 11.2909 1.59933C11.2909 2.70348 10.3435 3.59218 8.90654 4.95735L8.49883 5.33644Z" fill="#62674A"/>
<path opacity="0.1" d="M35.7999 15.2614L35.4001 14.8823C33.9632 13.5172 33.0158 12.6285 33.0158 11.5243C33.0123 11.3142 33.0495 11.1055 33.1252 10.9105C33.2009 10.7155 33.3135 10.5382 33.4564 10.3891C33.5993 10.24 33.7696 10.1222 33.9572 10.0425C34.1449 9.96275 34.346 9.92284 34.5487 9.92509C34.7882 9.92622 35.0246 9.98149 35.2414 10.087C35.4582 10.1926 35.6501 10.3459 35.8039 10.5362C35.9577 10.346 36.1497 10.1928 36.3664 10.0872C36.5832 9.98169 36.8195 9.92636 37.059 9.92509C37.2619 9.92256 37.4633 9.96226 37.6511 10.0418C37.839 10.1214 38.0095 10.2393 38.1526 10.3884C38.2957 10.5375 38.4085 10.7149 38.4843 10.91C38.5601 11.1051 38.5974 11.314 38.5939 11.5243C38.5939 12.6285 37.6446 13.5172 36.2096 14.8823L35.7999 15.2614Z" fill="#62674A"/>
<path d="M26.6968 35.8181C26.9329 36.2594 26.999 36.8974 27.0379 37.5002C27.1394 39.058 27.1418 40.6656 26.8656 42.1571C26.5894 43.6486 26.0039 45.0138 25.1836 45.6332C26.3262 45.9584 27.6835 46.1614 28.4578 44.6492C28.6089 44.355 28.7317 44.0008 28.9241 43.7874C29.7444 42.8801 30.7854 45.2727 31.6754 44.5933C32.2656 44.1458 32.3081 42.7454 32.2656 41.6268L32.1039 37.4836C32.0212 35.3686 31.9162 33.1334 31.2257 31.4015C30.6025 29.8334 29.5815 28.8908 28.544 28.2942C27.798 27.8799 26.9671 27.6085 26.2412 28.1326C25.3146 28.7996 23.5264 31.4637 23.5371 33.4337C23.5571 36.3609 25.9178 34.3722 26.6968 35.8181Z" fill="#3F3D56"/>
<defs>
<linearGradient id="paint0_linear" x1="34.5187" y1="119.994" x2="34.5187" y2="11.8848" gradientUnits="userSpaceOnUse">
<stop stop-color="#808080" stop-opacity="0.25"/>
<stop offset="0.54" stop-color="#808080" stop-opacity="0.12"/>
<stop offset="1" stop-color="#808080" stop-opacity="0.1"/>
</linearGradient>
</defs>
</svg>
