<svg width="150" height="75" viewBox="0 0 150 75" fill="none" xmlns="http://www.w3.org/2000/svg">
<path opacity="0.1" d="M124.193 31.7878C132.971 31.7878 140.087 24.6719 140.087 15.8939C140.087 7.11594 132.971 0 124.193 0C115.415 0 108.299 7.11594 108.299 15.8939C108.299 24.6719 115.415 31.7878 124.193 31.7878Z" fill="#24221C"/>
<path opacity="0.1" d="M59.492 8.01079H58.1318C58.3845 8.01079 58.6268 7.90674 58.8055 7.72152C58.9842 7.5363 59.0846 7.28509 59.0846 7.02316C59.0846 6.76122 58.9842 6.51001 58.8055 6.32479C58.6268 6.13958 58.3845 6.03552 58.1318 6.03552H47.1119C46.8591 6.03552 46.6168 6.13958 46.4381 6.32479C46.2594 6.51001 46.159 6.76122 46.159 7.02316C46.159 7.28509 46.2594 7.5363 46.4381 7.72152C46.6168 7.90674 46.8591 8.01079 47.1119 8.01079H48.4721C48.2193 8.01079 47.977 8.11484 47.7983 8.30006C47.6196 8.48528 47.5192 8.73649 47.5192 8.99842C47.5192 9.26036 47.6196 9.51157 47.7983 9.69679C47.977 9.882 48.2193 9.98606 48.4721 9.98606H46.5664C46.3137 9.98606 46.0713 10.0901 45.8926 10.2753C45.7139 10.4605 45.6135 10.7118 45.6135 10.9737C45.6135 11.2356 45.7139 11.4868 45.8926 11.6721C46.0713 11.8573 46.3137 11.9613 46.5664 11.9613H57.5863C57.839 11.9613 58.0814 11.8573 58.2601 11.6721C58.4388 11.4868 58.5391 11.2356 58.5391 10.9737C58.5391 10.7118 58.4388 10.4605 58.2601 10.2753C58.0814 10.0901 57.839 9.98606 57.5863 9.98606H59.492C59.7447 9.98606 59.9871 9.882 60.1658 9.69679C60.3445 9.51157 60.4448 9.26036 60.4448 8.99842C60.4448 8.73649 60.3445 8.48528 60.1658 8.30006C59.9871 8.11484 59.7447 8.01079 59.492 8.01079Z" fill="#24221C"/>
<path opacity="0.1" d="M148.172 26.1788H146.811C147.064 26.1788 147.306 26.0748 147.485 25.8895C147.664 25.7043 147.764 25.4531 147.764 25.1912C147.764 24.9292 147.664 24.678 147.485 24.4928C147.306 24.3076 147.064 24.2036 146.811 24.2036H135.791C135.539 24.2036 135.296 24.3076 135.118 24.4928C134.939 24.678 134.839 24.9292 134.839 25.1912C134.839 25.4531 134.939 25.7043 135.118 25.8895C135.296 26.0748 135.539 26.1788 135.791 26.1788H137.152C136.899 26.1788 136.657 26.2829 136.478 26.4681C136.299 26.6533 136.199 26.9045 136.199 27.1665C136.199 27.4284 136.299 27.6796 136.478 27.8648C136.657 28.05 136.899 28.1541 137.152 28.1541H135.246C134.993 28.1541 134.751 28.2581 134.572 28.4434C134.393 28.6286 134.293 28.8798 134.293 29.1417C134.293 29.4037 134.393 29.6549 134.572 29.8401C134.751 30.0253 134.993 30.1294 135.246 30.1294H146.266C146.519 30.1294 146.761 30.0253 146.94 29.8401C147.118 29.6549 147.219 29.4037 147.219 29.1417C147.219 28.8798 147.118 28.6286 146.94 28.4434C146.761 28.2581 146.519 28.1541 146.266 28.1541H148.172C148.424 28.1541 148.667 28.05 148.845 27.8648C149.024 27.6796 149.124 27.4284 149.124 27.1665C149.124 26.9045 149.024 26.6533 148.845 26.4681C148.667 26.2829 148.424 26.1788 148.172 26.1788Z" fill="#24221C"/>
<path opacity="0.1" d="M72.1507 34.0138H70.7904C71.0432 34.0138 71.2855 33.9097 71.4642 33.7245C71.6429 33.5393 71.7433 33.2881 71.7433 33.0261C71.7433 32.7642 71.6429 32.513 71.4642 32.3278C71.2855 32.1425 71.0432 32.0385 70.7904 32.0385H59.7705C59.5178 32.0385 59.2754 32.1425 59.0967 32.3278C58.918 32.513 58.8177 32.7642 58.8177 33.0261C58.8177 33.2881 58.918 33.5393 59.0967 33.7245C59.2754 33.9097 59.5178 34.0138 59.7705 34.0138H61.1307C60.878 34.0138 60.6357 34.1178 60.457 34.303C60.2783 34.4882 60.1779 34.7395 60.1779 35.0014C60.1779 35.2633 60.2783 35.5145 60.457 35.6998C60.6357 35.885 60.878 35.989 61.1307 35.989H59.225C58.9723 35.989 58.73 36.0931 58.5513 36.2783C58.3726 36.4635 58.2722 36.7147 58.2722 36.9767C58.2722 37.2386 58.3726 37.4898 58.5513 37.675C58.73 37.8603 58.9723 37.9643 59.225 37.9643H70.245C70.4977 37.9643 70.74 37.8603 70.9187 37.675C71.0974 37.4898 71.1978 37.2386 71.1978 36.9767C71.1978 36.7147 71.0974 36.4635 70.9187 36.2783C70.74 36.0931 70.4977 35.989 70.245 35.989H72.1507C72.4034 35.989 72.6457 35.885 72.8244 35.6998C73.0031 35.5145 73.1035 35.2633 73.1035 35.0014C73.1035 34.7395 73.0031 34.4882 72.8244 34.303C72.6457 34.1178 72.4034 34.0138 72.1507 34.0138Z" fill="#24221C"/>
<path opacity="0.1" d="M13.8785 32.3387H12.5183C12.771 32.3387 13.0133 32.2346 13.192 32.0494C13.3707 31.8642 13.4711 31.613 13.4711 31.351C13.4711 31.0891 13.3707 30.8379 13.192 30.6527C13.0133 30.4675 12.771 30.3634 12.5183 30.3634H1.49833C1.24561 30.3634 1.00325 30.4675 0.824557 30.6527C0.645862 30.8379 0.545485 31.0891 0.545485 31.351C0.545485 31.613 0.645862 31.8642 0.824557 32.0494C1.00325 32.2346 1.24561 32.3387 1.49833 32.3387H2.85856C2.60585 32.3387 2.36349 32.4427 2.18479 32.6279C2.0061 32.8132 1.90571 33.0644 1.90571 33.3263C1.90571 33.5883 2.0061 33.8395 2.18479 34.0247C2.36349 34.2099 2.60585 34.314 2.85856 34.314H0.952854C0.700142 34.314 0.457779 34.418 0.279085 34.6032C0.100391 34.7884 0 35.0397 0 35.3016C0 35.5635 0.100391 35.8147 0.279085 36C0.457779 36.1852 0.700142 36.2892 0.952854 36.2892H11.9728C12.2255 36.2892 12.4679 36.1852 12.6465 36C12.8252 35.8147 12.9256 35.5635 12.9256 35.3016C12.9256 35.0397 12.8252 34.7884 12.6465 34.6032C12.4679 34.418 12.2255 34.314 11.9728 34.314H13.8785C14.1312 34.314 14.3736 34.2099 14.5523 34.0247C14.731 33.8395 14.8313 33.5883 14.8313 33.3263C14.8313 33.0644 14.731 32.8132 14.5523 32.6279C14.3736 32.4427 14.1312 32.3387 13.8785 32.3387Z" fill="#24221C"/>
<path opacity="0.1" d="M49.9801 70.382H48.6199C48.8726 70.382 49.115 70.2779 49.2937 70.0927C49.4724 69.9075 49.5727 69.6563 49.5727 69.3943C49.5727 69.1324 49.4724 68.8812 49.2937 68.696C49.115 68.5108 48.8726 68.4067 48.6199 68.4067H37.6C37.3473 68.4067 37.1049 68.5108 36.9262 68.696C36.7475 68.8812 36.6471 69.1324 36.6471 69.3943C36.6471 69.6563 36.7475 69.9075 36.9262 70.0927C37.1049 70.2779 37.3473 70.382 37.6 70.382H38.9602C38.8351 70.382 38.7112 70.4075 38.5956 70.4572C38.4799 70.5068 38.3749 70.5795 38.2864 70.6713C38.1979 70.763 38.1278 70.8718 38.0799 70.9917C38.032 71.1115 38.0073 71.2399 38.0073 71.3696C38.0073 71.4993 38.032 71.6278 38.0799 71.7476C38.1278 71.8674 38.1979 71.9763 38.2864 72.068C38.3749 72.1597 38.4799 72.2324 38.5956 72.2821C38.7112 72.3317 38.8351 72.3573 38.9602 72.3573H37.0545C36.8018 72.3573 36.5594 72.4613 36.3807 72.6465C36.202 72.8318 36.1016 73.083 36.1016 73.3449C36.1016 73.6068 36.202 73.858 36.3807 74.0433C36.5594 74.2285 36.8018 74.3325 37.0545 74.3325H48.0744C48.3271 74.3325 48.5695 74.2285 48.7482 74.0433C48.9269 73.858 49.0273 73.6068 49.0273 73.3449C49.0273 73.083 48.9269 72.8318 48.7482 72.6465C48.5695 72.4613 48.3271 72.3573 48.0744 72.3573H49.9801C50.2328 72.3573 50.4752 72.2532 50.6539 72.068C50.8326 71.8828 50.933 71.6316 50.933 71.3696C50.933 71.1077 50.8326 70.8565 50.6539 70.6713C50.4752 70.486 50.2328 70.382 49.9801 70.382Z" fill="#24221C"/>
<path opacity="0.1" d="M113.76 64.769H112.399C112.652 64.769 112.895 64.665 113.073 64.4798C113.252 64.2945 113.352 64.0433 113.352 63.7814C113.352 63.5195 113.252 63.2683 113.073 63.083C112.895 62.8978 112.652 62.7938 112.399 62.7938H101.38C101.127 62.7938 100.884 62.8978 100.706 63.083C100.527 63.2683 100.427 63.5195 100.427 63.7814C100.427 64.0433 100.527 64.2945 100.706 64.4798C100.884 64.665 101.127 64.769 101.38 64.769H102.74C102.487 64.769 102.245 64.8731 102.066 65.0583C101.887 65.2435 101.787 65.4947 101.787 65.7567C101.787 66.0186 101.887 66.2698 102.066 66.455C102.245 66.6403 102.487 66.7443 102.74 66.7443H100.834C100.709 66.7443 100.585 66.7699 100.469 66.8195C100.354 66.8691 100.249 66.9419 100.16 67.0336C100.072 67.1253 100.002 67.2342 99.9538 67.354C99.9059 67.4738 99.8813 67.6023 99.8813 67.732C99.8813 67.8617 99.9059 67.9901 99.9538 68.1099C100.002 68.2297 100.072 68.3386 100.16 68.4303C100.249 68.522 100.354 68.5948 100.469 68.6444C100.585 68.694 100.709 68.7196 100.834 68.7196H111.854C111.979 68.7196 112.103 68.694 112.219 68.6444C112.334 68.5948 112.439 68.522 112.528 68.4303C112.616 68.3386 112.686 68.2297 112.734 68.1099C112.782 67.9901 112.807 67.8617 112.807 67.732C112.807 67.6023 112.782 67.4738 112.734 67.354C112.686 67.2342 112.616 67.1253 112.528 67.0336C112.439 66.9419 112.334 66.8691 112.219 66.8195C112.103 66.7699 111.979 66.7443 111.854 66.7443H113.76C114.012 66.7443 114.255 66.6403 114.434 66.455C114.612 66.2698 114.713 66.0186 114.713 65.7567C114.713 65.4947 114.612 65.2435 114.434 65.0583C114.255 64.8731 114.012 64.769 113.76 64.769Z" fill="#24221C"/>
</svg>
