<svg width="57" height="68" viewBox="0 0 57 68" fill="none" xmlns="http://www.w3.org/2000/svg">
<path d="M53.931 3.51727H2.34485V1.17247C2.34485 0.525007 2.86986 0 3.51732 0H52.7587C53.4062 0 53.9312 0.525007 53.9312 1.17247V3.51727H53.931Z" fill="#707487"/>
<path d="M5.86212 67.9998H3.51732C2.86986 67.9998 2.34485 67.4748 2.34485 66.8273V62.1377H7.03445V66.8273C7.03445 67.4748 6.50958 67.9998 5.86212 67.9998Z" fill="#959CB3"/>
<path d="M52.7585 67.9998H50.4137C49.7662 67.9998 49.2412 67.4748 49.2412 66.8273V62.1377H53.9308V66.8273C53.9309 67.4748 53.4059 67.9998 52.7585 67.9998Z" fill="#959CB3"/>
<path d="M53.931 63.3105H2.3448C1.04975 63.3105 0 62.2608 0 60.9657V4.68977C0 3.39472 1.04975 2.34497 2.3448 2.34497H53.931C55.226 2.34497 56.2758 3.39472 56.2758 4.68977V60.9656C56.2758 62.2608 55.226 63.3105 53.931 63.3105Z" fill="#FFEBBE"/>
<path d="M51.5862 56.2758H4.68965C3.3946 56.2758 2.34485 55.2261 2.34485 53.931V19.931C2.34485 18.636 3.3946 17.5862 4.68965 17.5862H51.5861C52.8812 17.5862 53.9309 18.636 53.9309 19.931V53.931C53.931 55.2261 52.8813 56.2758 51.5862 56.2758Z" fill="#F0DCA0"/>
<path d="M22.2759 14.0691C24.2185 14.0691 25.7932 12.4944 25.7932 10.5518C25.7932 8.60928 24.2185 7.03455 22.2759 7.03455C20.3334 7.03455 18.7587 8.60928 18.7587 10.5518C18.7587 12.4944 20.3334 14.0691 22.2759 14.0691Z" fill="#AFB9D2"/>
<path d="M22.2757 11.7243C21.6283 11.7243 21.1033 11.1992 21.1033 10.5518V7.03465C21.1033 6.38719 21.6283 5.86218 22.2757 5.86218C22.9232 5.86218 23.4482 6.38719 23.4482 7.03465V10.5519C23.4482 11.1992 22.9232 11.7243 22.2757 11.7243Z" fill="#707487"/>
<path d="M34.0001 14.0691C35.9426 14.0691 37.5173 12.4944 37.5173 10.5518C37.5173 8.60928 35.9426 7.03455 34.0001 7.03455C32.0575 7.03455 30.4828 8.60928 30.4828 10.5518C30.4828 12.4944 32.0575 14.0691 34.0001 14.0691Z" fill="#AFB9D2"/>
<path d="M34 11.7243C33.3525 11.7243 32.8275 11.1992 32.8275 10.5518V7.03465C32.8275 6.38719 33.3525 5.86218 34 5.86218C34.6474 5.86218 35.1725 6.38719 35.1725 7.03465V10.5519C35.1725 11.1992 34.6474 11.7243 34 11.7243Z" fill="#707487"/>
<path d="M45.7242 14.0691C47.6667 14.0691 49.2414 12.4944 49.2414 10.5518C49.2414 8.60928 47.6667 7.03455 45.7242 7.03455C43.7816 7.03455 42.2069 8.60928 42.2069 10.5518C42.2069 12.4944 43.7816 14.0691 45.7242 14.0691Z" fill="#AFB9D2"/>
<path d="M45.7241 11.7243C45.0766 11.7243 44.5516 11.1992 44.5516 10.5518V7.03465C44.5516 6.38719 45.0766 5.86218 45.7241 5.86218C46.3716 5.86218 46.8966 6.38719 46.8966 7.03465V10.5519C46.8964 11.1992 46.3716 11.7243 45.7241 11.7243Z" fill="#707487"/>
<path d="M10.5516 14.0691C12.4941 14.0691 14.0688 12.4944 14.0688 10.5518C14.0688 8.60928 12.4941 7.03455 10.5516 7.03455C8.60904 7.03455 7.0343 8.60928 7.0343 10.5518C7.0343 12.4944 8.60904 14.0691 10.5516 14.0691Z" fill="#AFB9D2"/>
<path d="M10.5519 11.7244C9.9044 11.7244 9.37939 11.1994 9.37939 10.5519V7.03477C9.37939 6.38731 9.9044 5.8623 10.5519 5.8623C11.1993 5.8623 11.7243 6.38731 11.7243 7.03477V10.552C11.7243 11.1994 11.1993 11.7244 10.5519 11.7244Z" fill="#707487"/>
<path d="M49.2415 52.7587H7.03453C6.38707 52.7587 5.86206 52.2337 5.86206 51.5862V26.9656C5.86206 26.3182 6.38707 25.7932 7.03453 25.7932H49.2414C49.8888 25.7932 50.4138 26.3182 50.4138 26.9656V51.5862C50.4138 52.2338 49.889 52.7587 49.2415 52.7587Z" fill="#707487"/>
<path d="M49.2414 23.4481H7.03441C6.38695 23.4481 5.86194 22.9231 5.86194 22.2757C5.86194 21.6282 6.38695 21.1032 7.03441 21.1032H49.2412C49.8887 21.1032 50.4137 21.6282 50.4137 22.2757C50.4137 22.9231 49.8888 23.4481 49.2414 23.4481Z" fill="white"/>
<path d="M44.5516 48.069H11.7241C11.0766 48.069 10.5516 47.544 10.5516 46.8965V31.6553C10.5516 31.0078 11.0766 30.4828 11.7241 30.4828H44.5516C45.1991 30.4828 45.7241 31.0078 45.7241 31.6553V46.8967C45.7241 47.544 45.1991 48.069 44.5516 48.069Z" fill="#FFD764"/>
<path d="M26.5498 43.7959C26.2498 43.7959 25.9498 43.6814 25.721 43.4525L19.1021 36.8291C18.6442 36.3712 18.6442 35.6288 19.1021 35.1712C19.5601 34.7133 20.3021 34.7133 20.76 35.1712L27.3789 41.7946C27.8368 42.2525 27.8368 42.9949 27.3789 43.4525C27.1499 43.6814 26.8499 43.7959 26.5498 43.7959Z" fill="#FFE678"/>
<path d="M35.713 46.2147C35.413 46.2147 35.113 46.1002 34.8842 45.8712L31.0242 42.0096C30.5663 41.5517 30.5663 40.8092 31.0242 40.3517C31.4822 39.8938 32.2242 39.8938 32.6821 40.3517L36.5421 44.2133C37 44.6713 37 45.4137 36.5421 45.8712C36.3131 46.1001 36.0131 46.2147 35.713 46.2147Z" fill="#FFE678"/>
<path d="M28.3365 38.8355C28.0365 38.8355 27.7359 38.7211 27.5076 38.4921L26.065 37.0483C25.6071 36.5903 25.6071 35.8479 26.065 35.3904C26.5229 34.9325 27.266 34.9325 27.7229 35.3904L29.1655 36.8342C29.6235 37.2921 29.6235 38.0346 29.1655 38.4921C28.9365 38.7212 28.6365 38.8355 28.3365 38.8355Z" fill="#FFF08C"/>
<path d="M44.5516 30.4828H11.7241C11.0766 30.4828 10.5516 31.0078 10.5516 31.6553V34.0001C10.5516 33.3526 11.0766 32.8276 11.7241 32.8276H44.5516C45.1991 32.8276 45.7241 33.3526 45.7241 34.0001V31.6553C45.7241 31.0078 45.1991 30.4828 44.5516 30.4828Z" fill="#FFBE5A"/>
</svg>
