<svg width="119" height="134" viewBox="0 0 119 134" fill="none" xmlns="http://www.w3.org/2000/svg">
<path d="M56.2117 0C56.2117 0 40.6576 23.4582 19.5114 22.7935" stroke="#535461" stroke-width="0.373193" stroke-miterlimit="10"/>
<path d="M19.6028 21.2893C19.6028 21.2893 44.8939 12.7012 63.4794 22.9104C71.2586 27.246 80.0468 28.553 88.5246 26.6351C92.5424 25.6889 96.4766 24.3201 100.278 22.5457" stroke="#535461" stroke-width="0.746388" stroke-miterlimit="10"/>
<path d="M112.031 28.8722C108.933 28.8722 99.9513 22.3876 99.9513 22.3876C99.9513 22.3876 108.933 15.9029 112.031 15.9029C112.799 15.8442 113.569 15.968 114.293 16.2666C115.018 16.5653 115.682 17.0323 116.243 17.6389C116.805 18.2455 117.253 18.9787 117.559 19.7931C117.865 20.6075 118.023 21.4857 118.023 22.3734C118.023 23.2611 117.865 24.1393 117.559 24.9537C117.253 25.7681 116.805 26.5013 116.243 27.1078C115.682 27.7144 115.018 28.1815 114.293 28.4801C113.569 28.7787 112.799 28.9025 112.031 28.8438V28.8722Z" fill="#62674A"/>
<path d="M94.8755 39.576C92.2761 37.6347 87.7834 26.5703 87.7834 26.5703C87.7834 26.5703 98.3706 26.7729 100.97 28.7143C102.114 29.6979 102.891 31.1468 103.144 32.7672C103.396 34.3876 103.105 36.058 102.329 37.4398C101.553 38.8216 100.351 39.8112 98.9664 40.2079C97.5815 40.6046 96.1178 40.3787 94.872 39.576H94.8755Z" fill="#62674A"/>
<path d="M65.5553 39.1099C64.1502 35.9202 65.1232 23.7534 65.1232 23.7534C65.1232 23.7534 74.1753 30.0881 75.5699 33.2818C76.1276 34.7971 76.1649 36.5004 75.6743 38.0463C75.1836 39.5922 74.2017 40.8649 72.9278 41.6063C71.6538 42.3477 70.1832 42.5023 68.8141 42.0387C67.445 41.5751 66.2799 40.528 65.5553 39.1099Z" fill="#62674A"/>
<path d="M43.4397 32.9942C41.599 30.1207 40.7665 17.9417 40.7665 17.9417C40.7665 17.9417 50.602 22.4242 52.4602 25.2977C53.2366 26.6824 53.5266 28.3564 53.2711 29.9791C53.0156 31.6017 52.2339 33.0511 51.085 34.0323C49.9361 35.0135 48.5063 35.4527 47.0867 35.2606C45.667 35.0685 44.3642 34.2595 43.4432 32.9982L43.4397 32.9942Z" fill="#62674A"/>
<path d="M87.1828 12.985C85.026 15.5464 82.7884 27.4903 82.7884 27.4903C82.7884 27.4903 93.07 24.5641 95.2267 22.0027C95.7985 21.4084 96.2584 20.685 96.578 19.8773C96.8975 19.0695 97.0699 18.1947 97.0844 17.307C97.0989 16.4192 96.9553 15.5375 96.6624 14.7164C96.3695 13.8954 95.9336 13.1524 95.3817 12.5337C94.8297 11.915 94.1736 11.4336 93.4538 11.1194C92.734 10.8053 91.966 10.665 91.1974 10.7073C90.4287 10.7496 89.6758 10.9736 88.9852 11.3654C88.2946 11.7572 87.6811 12.3084 87.1828 12.985Z" fill="#62674A"/>
<path d="M61.2418 6.20891C59.8368 9.39855 60.8098 21.5654 60.8098 21.5654C60.8098 21.5654 69.8619 15.2266 71.2564 12.0329C71.647 11.2685 71.8974 10.4198 71.9923 9.53918C72.0871 8.6586 72.0243 7.76493 71.8077 6.91349C71.5911 6.06204 71.2254 5.27095 70.7331 4.58916C70.2409 3.90738 69.6326 3.34941 68.946 2.9498C68.2593 2.55018 67.5088 2.31743 66.7411 2.26593C65.9733 2.21444 65.2045 2.34531 64.4823 2.65043C63.7602 2.95556 63.1 3.42845 62.5426 4.03984C61.9852 4.65123 61.5425 5.38811 61.2418 6.20486V6.20891Z" fill="#62674A"/>
<path d="M35.2447 3.61615C33.4041 6.48965 32.5716 18.6686 32.5716 18.6686C32.5716 18.6686 42.407 14.1861 44.2652 11.3126C44.76 10.6351 45.1291 9.84776 45.3499 8.99925C45.5707 8.15074 45.6385 7.25903 45.5491 6.37912C45.4596 5.49922 45.2149 4.6498 44.8299 3.88326C44.4449 3.11672 43.9279 2.44933 43.3107 1.92227C42.6935 1.3952 41.9893 1.01964 41.2415 0.818749C40.4936 0.617863 39.718 0.595913 38.9626 0.754254C38.2071 0.912596 37.4877 1.24787 36.8489 1.73939C36.2101 2.23091 35.6653 2.86825 35.2482 3.61209L35.2447 3.61615Z" fill="#62674A"/>
<path opacity="0.25" d="M112.031 28.8722C108.933 28.8722 99.9513 22.3876 99.9513 22.3876C99.9513 22.3876 108.933 15.9029 112.031 15.9029C112.799 15.8442 113.569 15.968 114.293 16.2666C115.018 16.5653 115.682 17.0323 116.243 17.6389C116.805 18.2455 117.253 18.9787 117.559 19.7931C117.865 20.6075 118.023 21.4857 118.023 22.3734C118.023 23.2611 117.865 24.1393 117.559 24.9537C117.253 25.7681 116.805 26.5013 116.243 27.1078C115.682 27.7144 115.018 28.1815 114.293 28.4801C113.569 28.7787 112.799 28.9025 112.031 28.8438V28.8722Z" fill="black"/>
<path opacity="0.25" d="M94.8755 39.576C92.2761 37.6347 87.7834 26.5703 87.7834 26.5703C87.7834 26.5703 98.3706 26.7729 100.97 28.7143C102.114 29.6979 102.891 31.1468 103.144 32.7672C103.396 34.3876 103.105 36.058 102.329 37.4398C101.553 38.8216 100.351 39.8112 98.9664 40.2079C97.5815 40.6046 96.1178 40.3787 94.872 39.576H94.8755Z" fill="black"/>
<path opacity="0.25" d="M65.5553 39.1099C64.1502 35.9202 65.1232 23.7534 65.1232 23.7534C65.1232 23.7534 74.1753 30.0881 75.5699 33.2818C76.1276 34.7971 76.1649 36.5004 75.6743 38.0463C75.1836 39.5922 74.2017 40.8649 72.9278 41.6063C71.6538 42.3477 70.1832 42.5023 68.8141 42.0387C67.445 41.5751 66.2799 40.528 65.5553 39.1099Z" fill="black"/>
<path opacity="0.25" d="M43.4397 32.9942C41.599 30.1207 40.7665 17.9417 40.7665 17.9417C40.7665 17.9417 50.602 22.4242 52.4602 25.2977C53.2366 26.6824 53.5266 28.3564 53.2711 29.9791C53.0156 31.6017 52.2339 33.0511 51.085 34.0323C49.9361 35.0135 48.5063 35.4527 47.0867 35.2606C45.667 35.0685 44.3642 34.2595 43.4432 32.9982L43.4397 32.9942Z" fill="black"/>
<path opacity="0.25" d="M87.1828 12.985C85.026 15.5464 82.7884 27.4903 82.7884 27.4903C82.7884 27.4903 93.07 24.5641 95.2267 22.0027C95.7985 21.4084 96.2584 20.685 96.578 19.8773C96.8975 19.0695 97.0699 18.1947 97.0844 17.307C97.0989 16.4192 96.9553 15.5375 96.6624 14.7164C96.3695 13.8954 95.9336 13.1524 95.3817 12.5337C94.8297 11.915 94.1736 11.4336 93.4538 11.1194C92.734 10.8053 91.966 10.665 91.1974 10.7073C90.4287 10.7496 89.6758 10.9736 88.9852 11.3654C88.2946 11.7572 87.6811 12.3084 87.1828 12.985Z" fill="black"/>
<path opacity="0.25" d="M61.2418 6.20891C59.8368 9.39855 60.8098 21.5654 60.8098 21.5654C60.8098 21.5654 69.8619 15.2266 71.2564 12.0329C71.647 11.2685 71.8974 10.4198 71.9923 9.53918C72.0871 8.6586 72.0243 7.76493 71.8077 6.91349C71.5911 6.06204 71.2254 5.27095 70.7331 4.58916C70.2409 3.90738 69.6326 3.34941 68.946 2.9498C68.2593 2.55018 67.5088 2.31743 66.7411 2.26593C65.9733 2.21444 65.2045 2.34531 64.4823 2.65043C63.7602 2.95556 63.1 3.42845 62.5426 4.03984C61.9852 4.65123 61.5425 5.38811 61.2418 6.20486V6.20891Z" fill="black"/>
<path opacity="0.25" d="M35.2447 3.61615C33.4041 6.48965 32.5716 18.6686 32.5716 18.6686C32.5716 18.6686 42.407 14.1861 44.2652 11.3126C44.76 10.6351 45.1291 9.84776 45.3499 8.99925C45.5707 8.15074 45.6385 7.25903 45.5491 6.37912C45.4596 5.49922 45.2149 4.6498 44.8299 3.88326C44.4449 3.11672 43.9279 2.44933 43.3107 1.92227C42.6935 1.3952 41.9893 1.01964 41.2415 0.818749C40.4936 0.617863 39.718 0.595913 38.9626 0.754254C38.2071 0.912596 37.4877 1.24787 36.8489 1.73939C36.2101 2.23091 35.6653 2.86825 35.2482 3.61209L35.2447 3.61615Z" fill="black"/>
<path d="M18.8809 21.2896C18.8809 21.2896 26.3242 50.4705 17.4759 71.9144C13.7182 80.89 12.5855 91.0299 14.2477 100.812C15.0677 105.447 16.2541 109.987 17.792 114.373" stroke="#535461" stroke-width="0.746388" stroke-miterlimit="10"/>
<path d="M12.3018 127.934C12.3018 124.359 17.922 113.996 17.922 113.996C17.922 113.996 23.5423 124.359 23.5423 127.934C23.448 129.576 22.8161 131.115 21.7748 132.239C20.7335 133.364 19.3606 133.99 17.9343 133.99C16.508 133.99 15.1351 133.364 14.0938 132.239C13.0525 131.115 12.4206 129.576 12.3264 127.934H12.3018Z" fill="#62674A"/>
<path d="M3.03187 108.139C4.71443 105.14 14.304 99.9565 14.304 99.9565C14.304 99.9565 14.1283 112.172 12.4458 115.171C12.0708 115.946 11.5621 116.624 10.951 117.162C10.3399 117.701 9.63945 118.089 8.89305 118.303C8.14665 118.517 7.37015 118.552 6.61162 118.405C5.85309 118.259 5.12868 117.935 4.4832 117.452C3.83772 116.97 3.28492 116.34 2.85902 115.601C2.43312 114.862 2.14317 114.03 2.00713 113.157C1.87108 112.283 1.89183 111.387 2.06809 110.523C2.24436 109.66 2.57238 108.847 3.03187 108.135V108.139Z" fill="#62674A"/>
<path d="M3.43585 74.3138C6.20031 72.6926 16.7453 73.8153 16.7453 73.8153C16.7453 73.8153 11.2515 84.2596 8.48354 85.8686C7.82089 86.3212 7.08468 86.6119 6.3206 86.7227C5.55652 86.8334 4.78087 86.7617 4.04179 86.5122C3.3027 86.2626 2.61595 85.8405 2.02415 85.272C1.43234 84.7035 0.948117 84.0007 0.601509 83.2072C0.254902 82.4138 0.0533142 81.5467 0.00925255 80.6596C-0.034811 79.7725 0.0795879 78.8845 0.34536 78.0506C0.611132 77.2166 1.0226 76.4546 1.55424 75.8118C2.08587 75.169 2.72632 74.6591 3.43585 74.3138Z" fill="#62674A"/>
<path d="M8.73993 48.7805C11.2304 46.6568 21.7859 45.6963 21.7859 45.6963C21.7859 45.6963 17.9009 57.0444 15.4105 59.1884C14.2103 60.0842 12.7594 60.4188 11.3531 60.1241C9.94668 59.8293 8.69048 58.9274 7.84009 57.6017C6.98971 56.2761 6.60903 54.6265 6.77555 52.9884C6.94206 51.3504 7.64325 49.8472 8.73641 48.7846L8.73993 48.7805Z" fill="#62674A"/>
<path d="M26.0819 99.2634C23.8619 96.7749 13.5101 94.1932 13.5101 94.1932C13.5101 94.1932 16.0463 106.056 18.2663 108.545C18.7813 109.204 19.4083 109.735 20.1083 110.104C20.8084 110.472 21.5666 110.671 22.336 110.688C23.1054 110.705 23.8696 110.539 24.5812 110.201C25.2929 109.863 25.9367 109.36 26.473 108.723C27.0093 108.086 27.4265 107.329 27.6988 106.499C27.971 105.668 28.0926 104.782 28.056 103.895C28.0193 103.009 27.8252 102.14 27.4856 101.343C27.146 100.546 26.6683 99.8384 26.0819 99.2634Z" fill="#62674A"/>
<path d="M31.9516 69.3326C29.1872 67.7114 18.6422 68.8341 18.6422 68.8341C18.6422 68.8341 24.136 79.2784 26.9039 80.8874C28.2173 81.5309 29.6935 81.574 31.0334 81.0079C32.3732 80.4418 33.4763 79.3089 34.1188 77.839C34.7614 76.3691 34.8954 74.6722 34.4936 73.0926C34.0917 71.5129 33.1843 70.1687 31.9551 69.3326H31.9516Z" fill="#62674A"/>
<path d="M34.1996 39.3372C31.7092 37.2134 21.1536 36.2529 21.1536 36.2529C21.1536 36.2529 25.0386 47.601 27.5291 49.745C28.1163 50.3158 28.7987 50.7417 29.5341 50.9965C30.2695 51.2512 31.0423 51.3294 31.8049 51.2262C32.5676 51.123 33.3037 50.8406 33.9681 50.3964C34.6324 49.9522 35.2109 49.3557 35.6677 48.6436C36.1245 47.9315 36.45 47.119 36.6241 46.2561C36.7982 45.3933 36.8172 44.4984 36.68 43.6268C36.5428 42.7551 36.2522 41.9251 35.8262 41.1881C35.4002 40.451 34.8478 39.8224 34.2032 39.3412L34.1996 39.3372Z" fill="#62674A"/>
</svg>
