<svg width="118" height="134" viewBox="0 0 118 134" fill="none" xmlns="http://www.w3.org/2000/svg">
<path d="M61.8114 133.99C61.8114 133.99 77.3654 110.531 98.5116 111.196" stroke="#535461" stroke-width="0.373193" stroke-miterlimit="10"/>
<path d="M98.4202 112.7C98.4202 112.7 73.1291 121.288 54.5436 111.079C46.7644 106.743 37.9762 105.437 29.4984 107.354C25.4806 108.301 21.5464 109.669 17.7451 111.444" stroke="#535461" stroke-width="0.746388" stroke-miterlimit="10"/>
<path d="M5.99177 105.117C9.08993 105.117 18.0718 111.602 18.0718 111.602C18.0718 111.602 9.08993 118.087 5.99177 118.087C5.22409 118.145 4.45415 118.022 3.72963 117.723C3.0051 117.424 2.34143 116.957 1.77972 116.351C1.21801 115.744 0.77021 115.011 0.464074 114.196C0.157938 113.382 -2.28882e-05 112.504 -2.28882e-05 111.616C-2.28882e-05 110.729 0.157938 109.85 0.464074 109.036C0.77021 108.221 1.21801 107.488 1.77972 106.882C2.34143 106.275 3.0051 105.808 3.72963 105.509C4.45415 105.211 5.22409 105.087 5.99177 105.146V105.117Z" fill="#62674A"/>
<path d="M23.1476 94.4134C25.7469 96.3548 30.2396 107.419 30.2396 107.419C30.2396 107.419 19.6525 107.217 17.0531 105.275C15.9089 104.292 15.1318 102.843 14.8793 101.222C14.6269 99.6019 14.9181 97.9314 15.6939 96.5497C16.4696 95.1679 17.6718 94.1783 19.0567 93.7816C20.4415 93.3849 21.9053 93.6108 23.1511 94.4134H23.1476Z" fill="#62674A"/>
<path d="M52.4677 94.8796C53.8728 98.0693 52.8998 110.236 52.8998 110.236C52.8998 110.236 43.8477 103.901 42.4532 100.708C41.8954 99.1924 41.8581 97.4891 42.3488 95.9432C42.8394 94.3973 43.8213 93.1246 45.0952 92.3832C46.3692 91.6418 47.8399 91.4872 49.209 91.9508C50.5781 92.4144 51.7431 93.4615 52.4677 94.8796Z" fill="#62674A"/>
<path d="M74.5834 100.995C76.424 103.869 77.2565 116.048 77.2565 116.048C77.2565 116.048 67.4211 111.565 65.5629 108.692C64.7865 107.307 64.4965 105.633 64.752 104.01C65.0074 102.388 65.7892 100.938 66.9381 99.9572C68.087 98.9761 69.5167 98.5368 70.9364 98.729C72.356 98.9211 73.6589 99.7301 74.5799 100.991L74.5834 100.995Z" fill="#62674A"/>
<path d="M30.8403 121.005C32.9971 118.443 35.2346 106.499 35.2346 106.499C35.2346 106.499 24.9531 109.425 22.7963 111.987C22.2245 112.581 21.7646 113.304 21.4451 114.112C21.1255 114.92 20.9532 115.795 20.9386 116.683C20.9241 117.57 21.0677 118.452 21.3606 119.273C21.6535 120.094 22.0895 120.837 22.6414 121.456C23.1933 122.075 23.8495 122.556 24.5692 122.87C25.289 123.184 26.057 123.324 26.8257 123.282C27.5943 123.24 28.3473 123.016 29.0379 122.624C29.7284 122.232 30.3419 121.681 30.8403 121.005Z" fill="#62674A"/>
<path d="M56.7812 127.781C58.1863 124.591 57.2132 112.424 57.2132 112.424C57.2132 112.424 48.1612 118.763 46.7666 121.957C46.376 122.721 46.1256 123.57 46.0308 124.45C45.9359 125.331 45.9988 126.225 46.2153 127.076C46.4319 127.928 46.7976 128.719 47.2899 129.4C47.7821 130.082 48.3904 130.64 49.0771 131.04C49.7638 131.439 50.5142 131.672 51.282 131.724C52.0498 131.775 52.8185 131.644 53.5407 131.339C54.2629 131.034 54.9231 130.561 55.4805 129.95C56.0379 129.338 56.4806 128.602 56.7812 127.785V127.781Z" fill="#62674A"/>
<path d="M82.7783 130.373C84.6189 127.5 85.4515 115.321 85.4515 115.321C85.4515 115.321 75.616 119.803 73.7578 122.677C73.2631 123.354 72.8939 124.142 72.6731 124.99C72.4523 125.839 72.3846 126.73 72.474 127.61C72.5634 128.49 72.8082 129.34 73.1932 130.106C73.5781 130.873 74.0952 131.54 74.7123 132.067C75.3295 132.594 76.0337 132.97 76.7816 133.171C77.5294 133.372 78.305 133.394 79.0605 133.235C79.816 133.077 80.5353 132.742 81.1741 132.25C81.813 131.759 82.3577 131.121 82.7748 130.377L82.7783 130.373Z" fill="#62674A"/>
<path opacity="0.25" d="M5.99177 105.117C9.08993 105.117 18.0718 111.602 18.0718 111.602C18.0718 111.602 9.08993 118.087 5.99177 118.087C5.22409 118.145 4.45415 118.022 3.72963 117.723C3.0051 117.424 2.34143 116.957 1.77972 116.351C1.21801 115.744 0.77021 115.011 0.464074 114.196C0.157938 113.382 -2.28882e-05 112.504 -2.28882e-05 111.616C-2.28882e-05 110.729 0.157938 109.85 0.464074 109.036C0.77021 108.221 1.21801 107.488 1.77972 106.882C2.34143 106.275 3.0051 105.808 3.72963 105.509C4.45415 105.211 5.22409 105.087 5.99177 105.146V105.117Z" fill="black"/>
<path opacity="0.25" d="M23.1476 94.4134C25.7469 96.3548 30.2396 107.419 30.2396 107.419C30.2396 107.419 19.6525 107.217 17.0531 105.275C15.9089 104.292 15.1318 102.843 14.8793 101.222C14.6269 99.6019 14.9181 97.9314 15.6939 96.5497C16.4696 95.1679 17.6718 94.1783 19.0567 93.7816C20.4415 93.3849 21.9053 93.6108 23.1511 94.4134H23.1476Z" fill="black"/>
<path opacity="0.25" d="M52.4677 94.8796C53.8728 98.0693 52.8998 110.236 52.8998 110.236C52.8998 110.236 43.8477 103.901 42.4532 100.708C41.8954 99.1924 41.8581 97.4891 42.3488 95.9432C42.8394 94.3973 43.8213 93.1246 45.0952 92.3832C46.3692 91.6418 47.8399 91.4872 49.209 91.9508C50.5781 92.4144 51.7431 93.4615 52.4677 94.8796Z" fill="black"/>
<path opacity="0.25" d="M74.5834 100.995C76.424 103.869 77.2565 116.048 77.2565 116.048C77.2565 116.048 67.4211 111.565 65.5629 108.692C64.7865 107.307 64.4965 105.633 64.752 104.01C65.0074 102.388 65.7892 100.938 66.9381 99.9572C68.087 98.9761 69.5167 98.5368 70.9364 98.729C72.356 98.9211 73.6589 99.7301 74.5799 100.991L74.5834 100.995Z" fill="black"/>
<path opacity="0.25" d="M30.8403 121.005C32.9971 118.443 35.2346 106.499 35.2346 106.499C35.2346 106.499 24.9531 109.425 22.7963 111.987C22.2245 112.581 21.7646 113.304 21.4451 114.112C21.1255 114.92 20.9532 115.795 20.9386 116.683C20.9241 117.57 21.0677 118.452 21.3606 119.273C21.6535 120.094 22.0895 120.837 22.6414 121.456C23.1933 122.075 23.8495 122.556 24.5692 122.87C25.289 123.184 26.057 123.324 26.8257 123.282C27.5943 123.24 28.3473 123.016 29.0379 122.624C29.7284 122.232 30.3419 121.681 30.8403 121.005Z" fill="black"/>
<path opacity="0.25" d="M56.7812 127.781C58.1863 124.591 57.2132 112.424 57.2132 112.424C57.2132 112.424 48.1612 118.763 46.7666 121.957C46.376 122.721 46.1256 123.57 46.0308 124.45C45.9359 125.331 45.9988 126.225 46.2153 127.076C46.4319 127.928 46.7976 128.719 47.2899 129.4C47.7821 130.082 48.3904 130.64 49.0771 131.04C49.7638 131.439 50.5142 131.672 51.282 131.724C52.0498 131.775 52.8185 131.644 53.5407 131.339C54.2629 131.034 54.9231 130.561 55.4805 129.95C56.0379 129.338 56.4806 128.602 56.7812 127.785V127.781Z" fill="black"/>
<path opacity="0.25" d="M82.7783 130.373C84.6189 127.5 85.4515 115.321 85.4515 115.321C85.4515 115.321 75.616 119.803 73.7578 122.677C73.2631 123.354 72.8939 124.142 72.6731 124.99C72.4523 125.839 72.3846 126.73 72.474 127.61C72.5634 128.49 72.8082 129.34 73.1932 130.106C73.5781 130.873 74.0952 131.54 74.7123 132.067C75.3295 132.594 76.0337 132.97 76.7816 133.171C77.5294 133.372 78.305 133.394 79.0605 133.235C79.816 133.077 80.5353 132.742 81.1741 132.25C81.813 131.759 82.3577 131.121 82.7748 130.377L82.7783 130.373Z" fill="black"/>
<path d="M99.1421 112.7C99.1421 112.7 91.6988 83.519 100.547 62.0751C104.305 53.0995 105.438 42.9596 103.775 33.1779C102.955 28.5422 101.769 24.0029 100.231 19.6169" stroke="#535461" stroke-width="0.746388" stroke-miterlimit="10"/>
<path d="M105.721 6.05595C105.721 9.63061 100.101 19.9939 100.101 19.9939C100.101 19.9939 94.4808 9.63061 94.4808 6.05595C94.575 4.41393 95.2069 2.87468 96.2482 1.75017C97.2895 0.625658 98.6624 0 100.089 0C101.515 0 102.888 0.625658 103.929 1.75017C104.971 2.87468 105.602 4.41393 105.697 6.05595H105.721Z" fill="#62674A"/>
<path d="M114.991 25.8503C113.309 28.8494 103.719 34.0331 103.719 34.0331C103.719 34.0331 103.895 21.8176 105.577 18.8185C105.952 18.0437 106.461 17.366 107.072 16.8273C107.683 16.2886 108.384 15.9003 109.13 15.6864C109.876 15.4726 110.653 15.4378 111.411 15.5842C112.17 15.7306 112.894 16.055 113.54 16.5374C114.185 17.0198 114.738 17.65 115.164 18.3888C115.59 19.1277 115.88 19.9595 116.016 20.8329C116.152 21.7062 116.131 22.6025 115.955 23.4662C115.779 24.33 115.451 25.1428 114.991 25.8543V25.8503Z" fill="#62674A"/>
<path d="M114.587 59.6757C111.823 61.2969 101.278 60.1742 101.278 60.1742C101.278 60.1742 106.772 49.7299 109.539 48.1209C110.202 47.6683 110.938 47.3776 111.702 47.2668C112.467 47.1561 113.242 47.2278 113.981 47.4773C114.72 47.7269 115.407 48.149 115.999 48.7175C116.591 49.286 117.075 49.9888 117.422 50.7823C117.768 51.5757 117.97 52.4428 118.014 53.3299C118.058 54.217 117.943 55.105 117.678 55.9389C117.412 56.7729 117 57.5349 116.469 58.1777C115.937 58.8205 115.297 59.3304 114.587 59.6757Z" fill="#62674A"/>
<path d="M109.283 85.209C106.793 87.3327 96.2371 88.2932 96.2371 88.2932C96.2371 88.2932 100.122 76.9451 102.613 74.8011C103.813 73.9053 105.264 73.5707 106.67 73.8654C108.076 74.1602 109.333 75.0621 110.183 76.3878C111.033 77.7134 111.414 79.363 111.248 81.0011C111.081 82.6391 110.38 84.1423 109.287 85.2049L109.283 85.209Z" fill="#62674A"/>
<path d="M91.9411 34.7262C94.1611 37.2147 104.513 39.7964 104.513 39.7964C104.513 39.7964 101.977 27.9336 99.7568 25.4451C99.2418 24.7854 98.6148 24.2547 97.9147 23.886C97.2147 23.5173 96.4564 23.3184 95.687 23.3017C94.9176 23.2849 94.1534 23.4507 93.4418 23.7886C92.7302 24.1266 92.0863 24.6295 91.55 25.2663C91.0138 25.9031 90.5966 26.6602 90.3243 27.4907C90.052 28.3211 89.9304 29.2073 89.9671 30.0942C90.0038 30.981 90.1979 31.8498 90.5375 32.6466C90.877 33.4434 91.3548 34.1512 91.9411 34.7262Z" fill="#62674A"/>
<path d="M86.0714 64.6569C88.8359 66.2781 99.3809 65.1554 99.3809 65.1554C99.3809 65.1554 93.8871 54.7111 91.1191 53.1021C89.8058 52.4586 88.3295 52.4155 86.9897 52.9816C85.6498 53.5477 84.5468 54.6806 83.9042 56.1505C83.2617 57.6204 83.1277 59.3173 83.5295 60.8969C83.9313 62.4766 84.8388 63.8208 86.0679 64.6569H86.0714Z" fill="#62674A"/>
<path d="M83.8234 94.6524C86.3139 96.7762 96.8694 97.7367 96.8694 97.7367C96.8694 97.7367 92.9844 86.3886 90.4939 84.2446C89.9067 83.6738 89.2243 83.2479 88.4889 82.9931C87.7535 82.7384 86.9807 82.6602 86.2181 82.7634C85.4555 82.8666 84.7193 83.149 84.0549 83.5932C83.3906 84.0374 82.8122 84.6339 82.3554 85.346C81.8986 86.0581 81.5731 86.8706 81.399 87.7335C81.2248 88.5963 81.2058 89.4912 81.3431 90.3628C81.4803 91.2345 81.7709 92.0645 82.1968 92.8015C82.6228 93.5386 83.1752 94.1672 83.8199 94.6484L83.8234 94.6524Z" fill="#62674A"/>
</svg>
