<svg width="48" height="100" viewBox="0 0 48 100" fill="none" xmlns="http://www.w3.org/2000/svg">
<path d="M6.85702 99.4287H3.42848C2.48177 99.4287 1.71411 98.6611 1.71411 97.7144V94.2858H8.5712V97.7144C8.57139 98.6611 7.80373 99.4287 6.85702 99.4287Z" fill="#AFB9D2"/>
<path d="M44.5715 99.4288H41.143C40.1962 99.4288 39.4286 98.6611 39.4286 97.7144V94.2859H46.2857V97.7144C46.2859 98.6611 45.5182 99.4288 44.5715 99.4288Z" fill="#AFB9D2"/>
<path d="M44.5715 96.0002H3.42854C1.53493 96.0002 0 94.4653 0 92.5716V3.42854C0 1.53493 1.53493 0 3.42854 0H44.5715C46.4651 0 48 1.53493 48 3.42854V92.5716C48 94.4653 46.4651 96.0002 44.5715 96.0002Z" fill="#00D7D7"/>
<path d="M48 30.8573H0V34.2858H48V30.8573Z" fill="#00BEBE"/>
<path d="M42.8572 27.4284H29.1428C28.1961 27.4284 27.4285 26.6608 27.4285 25.7141C27.4285 24.7674 28.1961 23.9997 29.1428 23.9997H42.8572C43.8039 23.9997 44.5716 24.7674 44.5716 25.7141C44.5716 26.661 43.8039 27.4284 42.8572 27.4284Z" fill="#E4EAF6"/>
<path d="M29.1432 37.7142H42.8576C43.8043 37.7142 44.5719 38.4818 44.5719 39.4285C44.5719 40.3753 43.8043 41.1429 42.8576 41.1429H29.1432C28.1965 41.1429 27.4288 40.3753 27.4288 39.4285C27.4288 38.4816 28.1965 37.7142 29.1432 37.7142Z" fill="#E4EAF6"/>
<path d="M0 92.5716C0 94.465 1.53513 96.0002 3.42854 96.0002H44.5715C46.4649 96.0002 48 94.465 48 92.5716V89.1431H0V92.5716Z" fill="#00BEBE"/>
</svg>
