<svg width="48" height="67" viewBox="0 0 48 67" fill="none" xmlns="http://www.w3.org/2000/svg">
<path d="M4.55828 66.0955H2.27915C1.64983 66.0955 1.13953 65.5852 1.13953 64.9558V62.6767H5.69778V64.9558C5.69791 65.5852 5.1876 66.0955 4.55828 66.0955Z" fill="#AFB9D2"/>
<path d="M45.5828 66.0954H43.3037C42.6744 66.0954 42.1641 65.5851 42.1641 64.9558V62.6767H46.7223V64.9558C46.7224 65.5851 46.2121 66.0954 45.5828 66.0954Z" fill="#AFB9D2"/>
<path d="M45.5829 63.8162H2.27913C1.02035 63.8162 0 62.7958 0 61.537V2.27913C0 1.02035 1.02035 0 2.27913 0H45.5829C46.8417 0 47.862 1.02035 47.862 2.27913V61.537C47.862 62.7958 46.8417 63.8162 45.5829 63.8162Z" fill="#E4EAF6"/>
<path d="M0 2.27913V13.6749H47.8622V2.27913C47.862 1.02035 46.8416 0 45.5829 0H2.27913C1.02048 0 0 1.02035 0 2.27913Z" fill="#D7DEED"/>
<path d="M19.3728 0V6.83751C19.3728 9.35494 21.4136 11.3958 23.9311 11.3958C26.4485 11.3958 28.4893 9.35494 28.4893 6.83751V0H19.3728Z" fill="#AFB9D2"/>
<path d="M23.931 51.2807C33.3716 51.2807 41.0247 43.6276 41.0247 34.1871C41.0247 24.7465 33.3716 17.0935 23.931 17.0935C14.4905 17.0935 6.8374 24.7465 6.8374 34.1871C6.8374 43.6276 14.4905 51.2807 23.931 51.2807Z" fill="#C7CFE2"/>
<path d="M23.9311 9.11651C25.1898 9.11651 26.2102 8.09611 26.2102 6.83738C26.2102 5.57866 25.1898 4.55826 23.9311 4.55826C22.6724 4.55826 21.652 5.57866 21.652 6.83738C21.652 8.09611 22.6724 9.11651 23.9311 9.11651Z" fill="#707487"/>
<path d="M33.0478 9.11664C32.4185 9.11664 31.9082 8.60634 31.9082 7.97701V5.69789C31.9082 5.06856 32.4185 4.55826 33.0478 4.55826C33.6772 4.55826 34.1875 5.06856 34.1875 5.69789V7.97701C34.1873 8.60634 33.6772 9.11664 33.0478 9.11664Z" fill="white"/>
<path d="M37.6059 9.11664C36.9766 9.11664 36.4663 8.60634 36.4663 7.97701V5.69789C36.4663 5.06856 36.9766 4.55826 37.6059 4.55826C38.2353 4.55826 38.7456 5.06856 38.7456 5.69789V7.97701C38.7456 8.60634 38.2353 9.11664 37.6059 9.11664Z" fill="#FFF08C"/>
<path d="M42.1642 9.11664C41.5348 9.11664 41.0245 8.60634 41.0245 7.97701V5.69789C41.0245 5.06856 41.5348 4.55826 42.1642 4.55826C42.7935 4.55826 43.3038 5.06856 43.3038 5.69789V7.97701C43.3038 8.60634 42.7935 9.11664 42.1642 9.11664Z" fill="#E4EAF6"/>
<path d="M23.9312 45.5829C30.2249 45.5829 35.3269 40.4808 35.3269 34.1871C35.3269 27.8934 30.2249 22.7914 23.9312 22.7914C17.6375 22.7914 12.5354 27.8934 12.5354 34.1871C12.5354 40.4808 17.6375 45.5829 23.9312 45.5829Z" fill="#00C8F0"/>
<path d="M23.9312 26.2101C29.6423 26.2101 34.3582 30.4158 35.185 35.8965C35.2693 35.3375 35.3269 34.7696 35.3269 34.1871C35.3269 27.8934 30.2249 22.7914 23.9312 22.7914C17.6374 22.7914 12.5354 27.8934 12.5354 34.1871C12.5354 34.7696 12.593 35.3375 12.6773 35.8965C13.5041 30.416 18.22 26.2101 23.9312 26.2101Z" fill="#00AFE1"/>
<path d="M33.0478 52.4204H44.4436C45.0729 52.4204 45.5832 52.9307 45.5832 53.5601V60.3976C45.5832 61.0269 45.0729 61.5372 44.4436 61.5372H33.0478C32.4185 61.5372 31.9082 61.0269 31.9082 60.3976V53.5601C31.9082 52.9307 32.4185 52.4204 33.0478 52.4204Z" fill="#D7DEED"/>
<path d="M14.8146 11.3956H3.4188C2.78948 11.3956 2.27917 10.8853 2.27917 10.2559V3.41855C2.27917 2.78923 2.78948 2.27892 3.4188 2.27892H14.8146C15.4439 2.27892 15.9542 2.78923 15.9542 3.41855V10.2561C15.9542 10.8853 15.4439 11.3956 14.8146 11.3956Z" fill="#C7CFE2"/>
<path d="M11.3959 9.1166H6.83762C6.2083 9.1166 5.698 9.6269 5.698 10.2562V11.3959H12.5355V10.2562C12.5354 9.62677 12.0252 9.1166 11.3959 9.1166Z" fill="#AFB9D2"/>
<path d="M29.6295 38.6298C29.9172 38.6298 30.2049 38.7377 30.4269 38.9553C30.8764 39.3955 30.8843 40.1171 30.4435 40.5667C29.6878 41.3384 28.8116 41.964 27.8383 42.4258C27.2724 42.6967 26.5903 42.453 26.3205 41.8849C26.0505 41.3162 26.2927 40.6368 26.8614 40.367C27.5909 40.0209 28.2479 39.5513 28.8156 38.972C29.0385 38.7443 29.3341 38.6298 29.6295 38.6298Z" fill="#00EBFF"/>
<path d="M17.0913 37.1568C17.4781 37.1568 17.8546 37.3532 18.0684 37.7081C19.1356 39.4803 20.9162 40.6639 22.9534 40.9554C23.5767 41.0445 24.0095 41.6216 23.9199 42.2447C23.8308 42.8679 23.2477 43.2991 22.6307 43.2112C19.9125 42.8228 17.5382 41.2453 16.1165 38.8844C15.7916 38.3452 15.9656 37.6447 16.5045 37.3203C16.6884 37.2091 16.891 37.1568 17.0913 37.1568Z" fill="#00DCFF"/>
<path d="M23.9311 20.5125C16.3787 20.5125 10.2562 26.6349 10.2562 34.1873C10.2562 41.7398 16.3787 47.8622 23.9311 47.8622C31.4835 47.8622 37.606 41.7398 37.606 34.1873C37.606 26.6349 31.4835 20.5125 23.9311 20.5125ZM23.9311 45.583C17.6373 45.583 12.5354 40.481 12.5354 34.1872C12.5354 27.8934 17.6373 22.7914 23.9311 22.7914C29.0549 22.7914 33.3883 26.1733 34.8225 30.8263C33.8068 31.0562 33.0477 31.9624 33.0477 33.0476V35.3267C33.0477 36.4119 33.8068 37.3181 34.8225 37.548C33.3883 42.2011 29.0549 45.583 23.9311 45.583Z" fill="#959CB3"/>
</svg>
