<svg width="68" height="82" viewBox="0 0 68 82" fill="none" xmlns="http://www.w3.org/2000/svg">
<path d="M27.6432 42.1839C27.6432 42.1839 12.0777 51.9171 40.7622 66.9034C40.7622 66.9034 47.0823 54.7369 40.0947 44.82C38.7382 42.8874 36.7452 41.5374 34.4929 41.0256C32.2406 40.5139 29.8855 40.8759 27.8734 42.0431L27.6432 42.1839Z" fill="#62674A"/>
<path d="M27.8182 41.9787C27.8182 41.9787 41.1397 52.5421 40.7622 66.9034" stroke="#535461" stroke-width="0.230157" stroke-miterlimit="10"/>
<path d="M39.9083 66.8414C39.9083 66.8414 35.0313 49.6651 40.8289 37.0429C43.2911 31.7597 44.0333 25.7913 42.9441 20.0336C42.4068 17.305 41.6295 14.6331 40.6218 12.0514" stroke="#535461" stroke-width="0.460314" stroke-miterlimit="10"/>
<path d="M44.2145 4.06922C44.2145 6.17331 40.532 12.2733 40.532 12.2733C40.532 12.2733 36.8495 6.17331 36.8495 4.06922C36.8162 3.54786 36.8865 3.02496 37.0561 2.53291C37.2257 2.04086 37.4909 1.59014 37.8354 1.20867C38.1798 0.827187 38.5962 0.523076 39.0587 0.315169C39.5211 0.107262 40.0199 -1.52588e-05 40.524 -1.52588e-05C41.0281 -1.52588e-05 41.5268 0.107262 41.9893 0.315169C42.4517 0.523076 42.8681 0.827187 43.2126 1.20867C43.557 1.59014 43.8223 2.04086 43.9919 2.53291C44.1614 3.02496 44.2317 3.54786 44.1984 4.06922H44.2145Z" fill="#62674A"/>
<path d="M50.293 15.7205C49.1905 17.4858 42.9073 20.537 42.9073 20.537C42.9073 20.537 43.0224 13.3468 44.1248 11.5815C44.6834 10.8044 45.5062 10.2766 46.4264 10.1052C47.3465 9.93374 48.2952 10.1315 49.0799 10.6583C49.8645 11.1852 50.4265 12.0017 50.6518 12.9422C50.8771 13.8827 50.7488 14.8768 50.293 15.7229V15.7205Z" fill="#62674A"/>
<path d="M50.0283 35.6331C48.217 36.5873 41.3077 35.9265 41.3077 35.9265C41.3077 35.9265 44.905 29.7788 46.7186 28.8317C47.5792 28.4529 48.5465 28.4276 49.4244 28.7608C50.3023 29.094 51.025 29.7609 51.446 30.6261C51.8671 31.4913 51.9548 32.4901 51.6916 33.4199C51.4283 34.3497 50.8337 35.1409 50.0283 35.6331Z" fill="#62674A"/>
<path d="M46.5553 50.6527C44.9234 51.9028 38.0072 52.4682 38.0072 52.4682C38.0072 52.4682 40.5528 45.7885 42.1846 44.5265C42.9709 43.9992 43.9216 43.8023 44.8431 43.9758C45.7646 44.1493 46.5876 44.6802 47.1448 45.4604C47.702 46.2407 47.9514 47.2117 47.8423 48.1759C47.7332 49.14 47.2738 50.0249 46.5576 50.6503L46.5553 50.6527Z" fill="#62674A"/>
<path d="M35.1924 20.9449C36.647 22.4096 43.4297 23.9293 43.4297 23.9293C43.4297 23.9293 41.768 16.9466 40.3134 15.4819C39.9759 15.0936 39.5651 14.7812 39.1064 14.5642C38.6477 14.3472 38.1509 14.2301 37.6468 14.2203C37.1427 14.2104 36.6419 14.308 36.1757 14.5069C35.7094 14.7058 35.2875 15.0019 34.9361 15.3767C34.5848 15.7515 34.3114 16.1972 34.133 16.686C33.9546 17.1748 33.8749 17.6964 33.899 18.2184C33.923 18.7404 34.0502 19.2518 34.2727 19.7208C34.4952 20.1898 34.8082 20.6064 35.1924 20.9449Z" fill="#62674A"/>
<path d="M31.3441 38.5626C33.1555 39.5168 40.0648 38.856 40.0648 38.856C40.0648 38.856 36.4651 32.7083 34.6515 31.7612C34.2174 31.496 33.7354 31.3259 33.2353 31.2615C32.7353 31.1971 32.2278 31.2397 31.7442 31.3868C31.2607 31.5339 30.8115 31.7823 30.4243 32.1166C30.0371 32.4509 29.7202 32.864 29.4933 33.3304C29.2664 33.7967 29.1342 34.3064 29.1049 34.8278C29.0757 35.3492 29.15 35.8713 29.3233 36.3618C29.4966 36.8523 29.7651 37.3006 30.1123 37.6792C30.4595 38.0577 30.878 38.3584 31.3418 38.5626H31.3441Z" fill="#62674A"/>
<path d="M29.8712 56.2183C31.503 57.4684 38.4192 58.0337 38.4192 58.0337C38.4192 58.0337 35.8737 51.3541 34.2418 50.0921C33.8571 49.7561 33.41 49.5054 32.9281 49.3555C32.4463 49.2055 31.9399 49.1595 31.4402 49.2202C30.9405 49.281 30.4582 49.4472 30.0229 49.7087C29.5876 49.9701 29.2086 50.3212 28.9092 50.7404C28.6099 51.1595 28.3967 51.6378 28.2826 52.1457C28.1685 52.6536 28.156 53.1803 28.246 53.6934C28.3359 54.2065 28.5263 54.695 28.8054 55.1288C29.0845 55.5627 29.4464 55.9327 29.8689 56.2159L29.8712 56.2183Z" fill="#62674A"/>
<path opacity="0.25" d="M44.2145 4.06922C44.2145 6.17331 40.532 12.2733 40.532 12.2733C40.532 12.2733 36.8495 6.17331 36.8495 4.06922C36.8162 3.54786 36.8865 3.02496 37.0561 2.53291C37.2257 2.04086 37.4909 1.59014 37.8354 1.20867C38.1798 0.827187 38.5962 0.523076 39.0587 0.315169C39.5211 0.107262 40.0199 -1.52588e-05 40.524 -1.52588e-05C41.0281 -1.52588e-05 41.5268 0.107262 41.9893 0.315169C42.4517 0.523076 42.8681 0.827187 43.2126 1.20867C43.557 1.59014 43.8223 2.04086 43.9919 2.53291C44.1614 3.02496 44.2317 3.54786 44.1984 4.06922H44.2145Z" fill="black"/>
<path opacity="0.25" d="M50.293 15.7205C49.1905 17.4858 42.9073 20.537 42.9073 20.537C42.9073 20.537 43.0224 13.3468 44.1248 11.5815C44.6834 10.8044 45.5062 10.2766 46.4264 10.1052C47.3465 9.93374 48.2952 10.1315 49.0799 10.6583C49.8645 11.1852 50.4265 12.0017 50.6518 12.9422C50.8771 13.8827 50.7488 14.8768 50.293 15.7229V15.7205Z" fill="black"/>
<path opacity="0.25" d="M50.0283 35.6331C48.217 36.5873 41.3077 35.9265 41.3077 35.9265C41.3077 35.9265 44.905 29.7788 46.7186 28.8317C47.5792 28.4529 48.5465 28.4276 49.4244 28.7608C50.3023 29.094 51.025 29.7609 51.446 30.6261C51.8671 31.4913 51.9548 32.4901 51.6916 33.4199C51.4283 34.3497 50.8337 35.1409 50.0283 35.6331Z" fill="black"/>
<path opacity="0.25" d="M46.5553 50.6527C44.9234 51.9028 38.0072 52.4682 38.0072 52.4682C38.0072 52.4682 40.5528 45.7885 42.1846 44.5265C42.9709 43.9992 43.9216 43.8023 44.8431 43.9758C45.7646 44.1493 46.5876 44.6802 47.1448 45.4604C47.702 46.2407 47.9514 47.2117 47.8423 48.1759C47.7332 49.14 47.2738 50.0249 46.5576 50.6503L46.5553 50.6527Z" fill="black"/>
<path opacity="0.25" d="M35.1924 20.9449C36.647 22.4096 43.4297 23.9293 43.4297 23.9293C43.4297 23.9293 41.768 16.9466 40.3134 15.4819C39.9759 15.0936 39.5651 14.7812 39.1064 14.5642C38.6477 14.3472 38.1509 14.2301 37.6468 14.2203C37.1427 14.2104 36.6419 14.308 36.1757 14.5069C35.7094 14.7058 35.2875 15.0019 34.9361 15.3767C34.5848 15.7515 34.3114 16.1972 34.133 16.686C33.9546 17.1748 33.8749 17.6964 33.899 18.2184C33.923 18.7404 34.0502 19.2518 34.2727 19.7208C34.4952 20.1898 34.8082 20.6064 35.1924 20.9449Z" fill="black"/>
<path opacity="0.25" d="M31.3441 38.5626C33.1555 39.5168 40.0648 38.856 40.0648 38.856C40.0648 38.856 36.4651 32.7083 34.6515 31.7612C34.2174 31.496 33.7354 31.3259 33.2353 31.2615C32.7353 31.1971 32.2278 31.2397 31.7442 31.3868C31.2607 31.5339 30.8115 31.7823 30.4243 32.1166C30.0371 32.4509 29.7202 32.864 29.4933 33.3304C29.2664 33.7967 29.1342 34.3064 29.1049 34.8278C29.0757 35.3492 29.15 35.8713 29.3233 36.3618C29.4966 36.8523 29.7651 37.3006 30.1123 37.6792C30.4595 38.0577 30.878 38.3584 31.3418 38.5626H31.3441Z" fill="black"/>
<path opacity="0.25" d="M29.8712 56.2183C31.503 57.4684 38.4192 58.0337 38.4192 58.0337C38.4192 58.0337 35.8737 51.3541 34.2418 50.0921C33.8571 49.7561 33.41 49.5054 32.9281 49.3555C32.4463 49.2055 31.9399 49.1595 31.4402 49.2202C30.9405 49.281 30.4582 49.4472 30.0229 49.7087C29.5876 49.9701 29.2086 50.3212 28.9092 50.7404C28.6099 51.1595 28.3967 51.6378 28.2826 52.1457C28.1685 52.6536 28.156 53.1803 28.246 53.6934C28.3359 54.2065 28.5263 54.695 28.8054 55.1288C29.0845 55.5627 29.4464 55.9327 29.8689 56.2159L29.8712 56.2183Z" fill="black"/>
<path d="M53.9571 72.6551C53.9571 72.6551 49.0801 55.4788 54.8777 42.8566C57.3398 37.5734 58.082 31.6049 56.9929 25.8473C56.4556 23.1187 55.6782 20.4468 54.6706 17.8651" stroke="#535461" stroke-width="0.460314" stroke-miterlimit="10"/>
<path d="M58.2679 9.8829C58.2679 11.987 54.5854 18.087 54.5854 18.087C54.5854 18.087 50.9029 11.987 50.9029 9.8829C50.9647 8.91638 51.3787 8.01035 52.061 7.34844C52.7433 6.68654 53.6428 6.31827 54.5774 6.31827C55.5119 6.31827 56.4115 6.68654 57.0938 7.34844C57.7761 8.01035 58.1901 8.91638 58.2518 9.8829H58.2679Z" fill="#62674A"/>
<path d="M64.3418 21.5342C63.2393 23.2995 56.9561 26.3507 56.9561 26.3507C56.9561 26.3507 57.0711 19.1605 58.1736 17.3951C58.4192 16.9391 58.7526 16.5402 59.153 16.2231C59.5534 15.906 60.0124 15.6774 60.5014 15.5516C60.9905 15.4257 61.4992 15.4053 61.9962 15.4914C62.4933 15.5776 62.9679 15.7685 63.3908 16.0525C63.8138 16.3365 64.176 16.7074 64.455 17.1423C64.7341 17.5772 64.9241 18.0668 65.0132 18.5809C65.1024 19.0949 65.0887 19.6225 64.9733 20.1309C64.8578 20.6393 64.6428 21.1177 64.3418 21.5365V21.5342Z" fill="#62674A"/>
<path d="M64.0771 41.4443C62.2658 42.3986 55.3565 41.7378 55.3565 41.7378C55.3565 41.7378 58.9561 35.5901 60.7698 34.643C61.2039 34.3766 61.6863 34.2054 62.187 34.1403C62.6876 34.0751 63.1958 34.1173 63.6801 34.2642C64.1644 34.4111 64.6143 34.6595 65.0021 34.9942C65.3899 35.3288 65.7071 35.7425 65.9342 36.2095C66.1613 36.6765 66.2934 37.187 66.3223 37.7091C66.3512 38.2312 66.2762 38.7539 66.1021 39.2448C65.9279 39.7357 65.6583 40.1842 65.31 40.5626C64.9616 40.9409 64.542 41.2411 64.0771 41.4443Z" fill="#62674A"/>
<path d="M60.6018 56.4736C58.9699 57.7236 52.0537 58.289 52.0537 58.289C52.0537 58.289 54.5992 51.6094 56.2311 50.3474C57.0174 49.8201 57.968 49.6232 58.8895 49.7967C59.811 49.9702 60.6341 50.5011 61.1913 51.2813C61.7485 52.0616 61.9979 53.0326 61.8888 53.9968C61.7797 54.9609 61.3203 55.8457 60.6041 56.4712L60.6018 56.4736Z" fill="#62674A"/>
<path d="M49.2389 26.7586C50.6935 28.2233 57.4762 29.743 57.4762 29.743C57.4762 29.743 55.8145 22.7603 54.3599 21.2956C54.0224 20.9073 53.6116 20.5949 53.1529 20.3779C52.6942 20.1609 52.1974 20.0438 51.6933 20.034C51.1891 20.0241 50.6884 20.1217 50.2221 20.3206C49.7559 20.5195 49.334 20.8155 48.9826 21.1904C48.6312 21.5652 48.3579 22.0108 48.1795 22.4997C48.001 22.9885 47.9214 23.5101 47.9454 24.0321C47.9694 24.5541 48.0967 25.0655 48.3191 25.5345C48.5416 26.0035 48.8547 26.4201 49.2389 26.7586Z" fill="#62674A"/>
<path d="M45.393 44.3763C47.2043 45.3305 54.1136 44.6697 54.1136 44.6697C54.1136 44.6697 50.5139 38.522 48.7003 37.5749C47.8398 37.1961 46.8725 37.1708 45.9946 37.504C45.1167 37.8372 44.394 38.504 43.9729 39.3693C43.5519 40.2345 43.4641 41.2333 43.7274 42.1631C43.9907 43.0929 44.5853 43.8841 45.3907 44.3763H45.393Z" fill="#62674A"/>
<path d="M43.9199 62.032C45.5518 63.2821 52.468 63.8475 52.468 63.8475C52.468 63.8475 49.9224 57.1678 48.2906 55.9058C47.9059 55.5698 47.4588 55.3191 46.9769 55.1692C46.4951 55.0192 45.9887 54.9732 45.489 55.0339C44.9893 55.0947 44.5069 55.2609 44.0716 55.5224C43.6363 55.7838 43.2573 56.1349 42.958 56.5541C42.6587 56.9732 42.4454 57.4515 42.3314 57.9594C42.2173 58.4673 42.2048 58.994 42.2947 59.5071C42.3847 60.0202 42.5751 60.5087 42.8542 60.9426C43.1333 61.3764 43.4952 61.7464 43.9176 62.0296L43.9199 62.032Z" fill="#62674A"/>
<path d="M19.2546 69.6964C24.3658 69.6964 28.5092 68.9701 28.5092 68.0742C28.5092 67.1783 24.3658 66.452 19.2546 66.452C14.1435 66.452 10 67.1783 10 68.0742C10 68.9701 14.1435 69.6964 19.2546 69.6964Z" fill="#62674A"/>
<path d="M23.0821 65.4214C23.5046 65.0646 23.8122 64.5828 23.9636 64.0402C24.0787 63.4939 23.8531 62.8354 23.3468 62.635C22.7806 62.4108 22.1753 62.8187 21.7173 63.229C21.2593 63.6394 20.7322 64.1093 20.1338 64.0211C20.4422 63.7307 20.6729 63.3626 20.8036 62.9526C20.9342 62.5425 20.9604 62.1044 20.8795 61.6808C20.8533 61.5053 20.7817 61.3404 20.6724 61.2037C20.3571 60.8554 19.7886 61.0033 19.4111 61.2776C18.2143 62.1508 17.8806 63.8374 17.8737 65.3522C17.754 64.8059 17.8553 64.2358 17.853 63.6823C17.8506 63.1289 17.701 62.4895 17.243 62.1961C16.9606 62.0386 16.643 61.9612 16.3224 61.9719C15.7861 61.9504 15.1854 62.0076 14.8195 62.4156C14.3592 62.9213 14.4812 63.7706 14.877 64.324C15.2729 64.8775 15.8782 65.233 16.4352 65.617C16.8808 65.8924 17.2607 66.2683 17.5469 66.7168C17.5813 66.7795 17.6091 66.8459 17.6297 66.9148H21.0038C21.7584 66.5165 22.4575 66.0141 23.0821 65.4214Z" fill="#62674A"/>
<path d="M57.9959 81.1826C63.1071 81.1826 67.2505 80.4563 67.2505 79.5604C67.2505 78.6645 63.1071 77.9382 57.9959 77.9382C52.8847 77.9382 48.7413 78.6645 48.7413 79.5604C48.7413 80.4563 52.8847 81.1826 57.9959 81.1826Z" fill="#62674A"/>
<path d="M61.8234 76.9076C62.2459 76.5508 62.5534 76.069 62.7049 75.5263C62.82 74.98 62.5944 74.3216 62.0881 74.1212C61.5219 73.897 60.9166 74.3049 60.4586 74.7152C60.0005 75.1255 59.4735 75.5955 58.8751 75.5072C59.1835 75.2169 59.4142 74.8488 59.5448 74.4387C59.6755 74.0287 59.7017 73.5906 59.6208 73.167C59.5946 72.9914 59.523 72.8266 59.4137 72.6898C59.0984 72.3415 58.5299 72.4895 58.1524 72.7638C56.9556 73.6369 56.6219 75.3235 56.615 76.8384C56.4953 76.2921 56.5965 75.7219 56.5942 75.1685C56.5919 74.615 56.4423 73.9757 55.9843 73.6822C55.7019 73.5247 55.3843 73.4474 55.0637 73.458C54.5274 73.4365 53.9267 73.4938 53.5608 73.9017C53.1005 74.4075 53.2224 75.2567 53.6183 75.8102C54.0142 76.3637 54.6195 76.7191 55.1765 77.1032C55.622 77.3786 56.002 77.7544 56.2881 78.2029C56.3226 78.2656 56.3504 78.332 56.371 78.401H59.7451C60.4997 78.0026 61.1988 77.5003 61.8234 76.9076Z" fill="#62674A"/>
</svg>
