<svg width="83" height="55" viewBox="0 0 83 55" fill="none" xmlns="http://www.w3.org/2000/svg">
<path d="M55.8103 44.3622H27.1896V52.7695H55.8103V44.3622Z" fill="#707487"/>
<path d="M81.5687 45.7932H1.4311C0.640817 45.7932 0 45.1524 0 44.3621V1.4311C0 0.640816 0.640817 0 1.4311 0H81.5689C82.3592 0 83 0.640816 83 1.4311V44.3621C82.9998 45.1524 82.359 45.7932 81.5687 45.7932Z" fill="#959CB3"/>
<path d="M80.1378 2.86206H2.86206V42.9309H80.1378V2.86206Z" fill="#FFD764"/>
<path d="M57.2412 54.3793H25.7586C24.9683 54.3793 24.3275 53.7393 24.3275 52.9482C24.3275 52.1573 24.9683 51.5171 25.7586 51.5171H57.2413C58.0316 51.5171 58.6724 52.1571 58.6724 52.9482C58.6723 53.7393 58.0314 54.3793 57.2412 54.3793Z" fill="#959CB3"/>
<path d="M34.5764 23.9089C34.2102 23.9089 33.844 23.7691 33.5647 23.4896L17.6485 7.56794C17.0895 7.00899 17.0895 6.1028 17.6485 5.54434C18.2074 4.98538 19.1131 4.98538 19.6721 5.54434L35.5883 21.466C36.1472 22.025 36.1472 22.9312 35.5883 23.4896C35.3088 23.7691 34.9426 23.9089 34.5764 23.9089Z" fill="#FFE678"/>
<path d="M60.1035 41.2041C59.7373 41.2041 59.3712 41.0643 59.0917 40.7848L41.6212 23.3121C41.0623 22.7531 41.0623 21.8469 41.6212 21.2885C42.1802 20.7295 43.0859 20.7295 43.6448 21.2885L61.1152 38.7611C61.6741 39.32 61.6741 40.2262 61.1152 40.7847C60.8357 41.0643 60.4695 41.2041 60.1035 41.2041Z" fill="#FFE678"/>
<path d="M38.3412 19.4381C37.975 19.4381 37.6081 19.2983 37.3295 19.0189L34.1056 15.7934C33.5467 15.2344 33.5467 14.3282 34.1056 13.7698C34.6646 13.2108 35.5716 13.2108 36.1292 13.7698L39.3531 16.9951C39.912 17.554 39.912 18.4602 39.3531 19.0187C39.0736 19.2983 38.7074 19.4381 38.3412 19.4381Z" fill="#FFF08C"/>
</svg>
